<svg xmlns="http://www.w3.org/2000/svg" xmlns:xlink="http://www.w3.org/1999/xlink" width="200" height="300" preserveAspectRatio="xMidYMid meet" version="1.0" viewBox="0 0 150 225" zoomAndPan="magnify"><g fill="red" fill-opacity="1"><g><g><path d="M 98.851562 -133.25 C 91.214844 -137.40625 80.878906 -139.628906 63.96875 -139.628906 L 18.070312 -139.628906 L 18.070312 0 L 47.058594 0 L 47.058594 -50.054688 L 63.96875 -50.054688 C 81.070312 -50.054688 91.410156 -52.757812 99.042969 -57.976562 C 111.992188 -65.996094 117.597656 -80.492188 117.597656 -97.207031 C 117.597656 -113.828125 111.894531 -126.292969 98.851562 -133.25 Z M 82.421875 -79.136719 C 77.6875 -75.078125 70.539062 -74.308594 59.910156 -74.308594 L 47.058594 -74.308594 L 47.058594 -115.375 L 59.910156 -115.375 C 70.25 -115.375 77.207031 -114.890625 82.132812 -111.121094 C 85.902344 -108.125 88.414062 -103.199219 88.414062 -95.371094 C 88.414062 -87.351562 86.09375 -82.328125 82.421875 -79.136719 Z M 82.421875 -79.136719" transform="translate(24.410399, 155.347082)"/></g></g></g><g fill="#0ff" fill-opacity="1"><g><g><path d="M 98.851562 -133.25 C 91.214844 -137.40625 80.878906 -139.628906 63.96875 -139.628906 L 18.070312 -139.628906 L 18.070312 0 L 47.058594 0 L 47.058594 -50.054688 L 63.96875 -50.054688 C 81.070312 -50.054688 91.410156 -52.757812 99.042969 -57.976562 C 111.992188 -65.996094 117.597656 -80.492188 117.597656 -97.207031 C 117.597656 -113.828125 111.894531 -126.292969 98.851562 -133.25 Z M 82.421875 -79.136719 C 77.6875 -75.078125 70.539062 -74.308594 59.910156 -74.308594 L 47.058594 -74.308594 L 47.058594 -115.375 L 59.910156 -115.375 C 70.25 -115.375 77.207031 -114.890625 82.132812 -111.121094 C 85.902344 -108.125 88.414062 -103.199219 88.414062 -95.371094 C 88.414062 -87.351562 86.09375 -82.328125 82.421875 -79.136719 Z M 82.421875 -79.136719" transform="translate(5.624333, 149.960265)"/></g></g></g><g fill="#000" fill-opacity="1"><g><g><path d="M 98.851562 -133.25 C 91.214844 -137.40625 80.878906 -139.628906 63.96875 -139.628906 L 18.070312 -139.628906 L 18.070312 0 L 47.058594 0 L 47.058594 -50.054688 L 63.96875 -50.054688 C 81.070312 -50.054688 91.410156 -52.757812 99.042969 -57.976562 C 111.992188 -65.996094 117.597656 -80.492188 117.597656 -97.207031 C 117.597656 -113.828125 111.894531 -126.292969 98.851562 -133.25 Z M 82.421875 -79.136719 C 77.6875 -75.078125 70.539062 -74.308594 59.910156 -74.308594 L 47.058594 -74.308594 L 47.058594 -115.375 L 59.910156 -115.375 C 70.25 -115.375 77.207031 -114.890625 82.132812 -111.121094 C 85.902344 -108.125 88.414062 -103.199219 88.414062 -95.371094 C 88.414062 -87.351562 86.09375 -82.328125 82.421875 -79.136719 Z M 82.421875 -79.136719" transform="translate(15.017366, 152.653673)"/></g></g></g><g fill="#ffc1b2" fill-opacity=".302"><g><g><path d="M 15.792969 -19.308594 C 15.085938 -20.144531 14.226562 -20.808594 13.253906 -21.273438 C 12.261719 -21.714844 11.175781 -21.957031 10.027344 -21.957031 L 2.980469 -21.957031 C 2.828125 -21.957031 2.71875 -21.890625 2.671875 -21.757812 C 2.605469 -21.625 2.628906 -21.515625 2.738281 -21.40625 C 3.136719 -20.964844 3.359375 -20.433594 3.359375 -19.835938 L 3.359375 -2.121094 C 3.359375 -1.503906 3.136719 -0.992188 2.738281 -0.550781 C 2.628906 -0.417969 2.605469 -0.308594 2.671875 -0.175781 C 2.71875 -0.0429688 2.828125 0 2.980469 0 L 7.972656 0 C 8.105469 0 8.21875 -0.0429688 8.261719 -0.175781 C 8.304688 -0.308594 8.304688 -0.417969 8.21875 -0.550781 C 7.886719 -0.90625 7.730469 -1.304688 7.730469 -1.746094 L 7.730469 -4.96875 C 7.730469 -5.191406 7.796875 -5.390625 7.972656 -5.566406 C 8.128906 -5.722656 8.328125 -5.808594 8.570312 -5.808594 L 10.027344 -5.808594 C 11.175781 -5.808594 12.261719 -6.03125 13.253906 -6.472656 C 14.226562 -6.914062 15.085938 -7.578125 15.792969 -8.4375 C 16.390625 -9.167969 16.855469 -10.007812 17.164062 -10.933594 C 17.472656 -11.863281 17.648438 -12.835938 17.648438 -13.851562 C 17.648438 -14.867188 17.472656 -15.859375 17.164062 -16.789062 C 16.855469 -17.714844 16.390625 -18.554688 15.792969 -19.308594 Z M 12.414062 -11.222656 C 11.863281 -10.515625 11.066406 -10.183594 10.027344 -10.183594 L 8.351562 -10.183594 C 8.171875 -10.183594 8.039062 -10.226562 7.910156 -10.359375 C 7.777344 -10.472656 7.730469 -10.601562 7.730469 -10.78125 L 7.730469 -16.964844 C 7.730469 -17.121094 7.777344 -17.253906 7.910156 -17.386719 C 8.039062 -17.515625 8.171875 -17.582031 8.351562 -17.582031 L 10.027344 -17.582031 C 10.824219 -17.582031 11.421875 -17.40625 11.863281 -17.054688 C 12.304688 -16.699219 12.613281 -16.300781 12.835938 -15.859375 C 13.035156 -15.417969 13.164062 -15 13.210938 -14.601562 C 13.253906 -14.203125 13.277344 -13.9375 13.277344 -13.851562 C 13.277344 -13.320312 13.1875 -12.835938 13.054688 -12.394531 C 12.902344 -11.949219 12.679688 -11.554688 12.414062 -11.222656 Z M 12.414062 -11.222656" transform="translate(4.241754, 184.470548)"/></g></g></g><g fill="#ffc1b2" fill-opacity=".302"><g><g><path d="M 18.070312 -0.550781 L 17.738281 -0.816406 C 17.386719 -1.105469 17.074219 -1.457031 16.832031 -1.855469 L 14.09375 -6.230469 C 14.003906 -6.363281 13.960938 -6.515625 14.003906 -6.691406 C 14.050781 -6.847656 14.136719 -6.980469 14.292969 -7.089844 C 14.84375 -7.488281 15.332031 -7.929688 15.726562 -8.4375 C 16.324219 -9.167969 16.789062 -10.007812 17.097656 -10.933594 C 17.40625 -11.863281 17.582031 -12.835938 17.582031 -13.851562 C 17.582031 -14.867188 17.40625 -15.859375 17.097656 -16.789062 C 16.789062 -17.714844 16.324219 -18.554688 15.726562 -19.308594 C 15.019531 -20.144531 14.160156 -20.808594 13.1875 -21.273438 C 12.195312 -21.714844 11.113281 -21.957031 9.960938 -21.957031 L 2.980469 -21.957031 C 2.828125 -21.957031 2.71875 -21.890625 2.671875 -21.757812 C 2.605469 -21.625 2.628906 -21.515625 2.738281 -21.40625 C 3.09375 -21.007812 3.292969 -20.542969 3.292969 -20.015625 L 3.292969 -1.898438 C 3.292969 -1.390625 3.113281 -0.949219 2.785156 -0.574219 C 2.652344 -0.441406 2.628906 -0.332031 2.695312 -0.199219 C 2.738281 -0.0664062 2.851562 0 3.027344 0 L 7.972656 0 C 8.105469 0 8.21875 -0.0429688 8.261719 -0.175781 C 8.304688 -0.308594 8.304688 -0.417969 8.21875 -0.550781 C 7.84375 -0.949219 7.664062 -1.390625 7.664062 -1.921875 L 7.664062 -5.148438 C 7.664062 -5.324219 7.710938 -5.476562 7.84375 -5.609375 C 7.972656 -5.742188 8.128906 -5.808594 8.304688 -5.808594 L 8.835938 -5.808594 C 9.058594 -5.808594 9.253906 -5.699219 9.386719 -5.5 L 12.105469 -1.125 C 12.214844 -0.929688 12.195312 -0.75 12.0625 -0.574219 L 12.039062 -0.550781 C 11.949219 -0.417969 11.949219 -0.308594 12.015625 -0.175781 C 12.0625 -0.0429688 12.171875 0 12.328125 0 L 17.914062 0 C 18.070312 0 18.15625 -0.0664062 18.203125 -0.199219 C 18.246094 -0.332031 18.203125 -0.441406 18.070312 -0.550781 Z M 12.347656 -11.222656 C 11.796875 -10.515625 11 -10.183594 9.960938 -10.183594 L 8.304688 -10.183594 C 8.128906 -10.183594 7.972656 -10.226562 7.84375 -10.359375 C 7.710938 -10.492188 7.664062 -10.648438 7.664062 -10.824219 L 7.664062 -16.921875 C 7.664062 -17.097656 7.710938 -17.253906 7.84375 -17.386719 C 7.972656 -17.515625 8.128906 -17.582031 8.304688 -17.582031 L 9.960938 -17.582031 C 10.757812 -17.582031 11.355469 -17.40625 11.796875 -17.054688 C 12.238281 -16.699219 12.546875 -16.300781 12.769531 -15.859375 C 12.96875 -15.417969 13.097656 -15 13.144531 -14.601562 C 13.1875 -14.203125 13.210938 -13.9375 13.210938 -13.851562 C 13.210938 -13.320312 13.121094 -12.835938 12.988281 -12.394531 C 12.835938 -11.949219 12.613281 -11.554688 12.347656 -11.222656 Z M 12.347656 -11.222656" transform="translate(23.680724, 184.470548)"/></g></g></g><g fill="#ffc1b2" fill-opacity=".302"><g><g><path d="M 20.101562 -0.398438 C 20.101562 -0.484375 20.058594 -0.550781 19.992188 -0.597656 C 19.484375 -1.015625 19.152344 -1.546875 18.976562 -2.210938 L 13.695312 -20.457031 C 13.585938 -20.808594 13.652344 -21.140625 13.917969 -21.40625 C 13.984375 -21.515625 13.984375 -21.625 13.9375 -21.757812 C 13.871094 -21.890625 13.761719 -21.957031 13.628906 -21.957031 L 7.796875 -21.957031 C 7.664062 -21.957031 7.554688 -21.890625 7.488281 -21.757812 C 7.421875 -21.625 7.421875 -21.515625 7.511719 -21.40625 C 7.777344 -21.140625 7.84375 -20.808594 7.730469 -20.457031 L 2.472656 -2.1875 C 2.296875 -1.570312 1.945312 -1.039062 1.4375 -0.597656 C 1.371094 -0.53125 1.324219 -0.464844 1.324219 -0.398438 C 1.304688 -0.289062 1.324219 -0.199219 1.390625 -0.109375 C 1.457031 -0.0234375 1.546875 0 1.679688 0 L 6.804688 0 C 6.9375 0 7.046875 -0.0429688 7.089844 -0.175781 C 7.136719 -0.308594 7.136719 -0.417969 7.046875 -0.53125 C 6.78125 -0.796875 6.714844 -1.125 6.804688 -1.480469 L 7.488281 -3.777344 C 7.554688 -4.019531 7.6875 -4.21875 7.886719 -4.351562 C 8.0625 -4.484375 8.285156 -4.574219 8.550781 -4.574219 L 12.902344 -4.574219 C 13.144531 -4.574219 13.363281 -4.484375 13.5625 -4.351562 C 13.738281 -4.21875 13.871094 -4.019531 13.960938 -3.777344 L 14.625 -1.480469 C 14.710938 -1.125 14.625 -0.816406 14.402344 -0.550781 L 14.402344 -0.53125 C 14.316406 -0.398438 14.316406 -0.289062 14.378906 -0.175781 C 14.425781 -0.0429688 14.535156 0 14.691406 0 L 19.769531 0 C 19.882812 0 19.96875 -0.0234375 20.035156 -0.109375 C 20.101562 -0.199219 20.125 -0.289062 20.101562 -0.398438 Z M 12.148438 -8.945312 L 9.300781 -8.945312 C 9.210938 -8.945312 9.144531 -8.96875 9.101562 -9.035156 C 9.035156 -9.101562 9.011719 -9.191406 9.058594 -9.277344 L 10.492188 -14.203125 C 10.515625 -14.316406 10.582031 -14.378906 10.714844 -14.378906 C 10.847656 -14.378906 10.914062 -14.316406 10.957031 -14.203125 L 12.371094 -9.277344 C 12.394531 -9.191406 12.371094 -9.101562 12.328125 -9.035156 C 12.28125 -8.96875 12.214844 -8.945312 12.148438 -8.945312 Z M 12.148438 -8.945312" transform="translate(44.555534, 184.470548)"/></g></g></g><g fill="#ffc1b2" fill-opacity=".302"><g><g><path d="M 20.589844 -0.550781 L 20.566406 -0.574219 C 20.210938 -0.929688 20.058594 -1.371094 20.058594 -1.898438 L 20.058594 -20.058594 C 20.058594 -20.566406 20.210938 -21.007812 20.566406 -21.382812 L 20.589844 -21.40625 C 20.65625 -21.515625 20.65625 -21.625 20.609375 -21.757812 C 20.542969 -21.890625 20.433594 -21.957031 20.300781 -21.957031 L 15.417969 -21.957031 C 15.265625 -21.957031 15.152344 -21.890625 15.109375 -21.757812 C 15.042969 -21.625 15.042969 -21.515625 15.132812 -21.40625 L 15.152344 -21.382812 C 15.484375 -21.007812 15.660156 -20.566406 15.660156 -20.058594 L 15.660156 -9.078125 C 15.660156 -8.992188 15.617188 -8.925781 15.53125 -8.902344 C 15.441406 -8.878906 15.375 -8.902344 15.332031 -8.992188 L 8.417969 -20.609375 C 8.238281 -20.875 8.285156 -21.140625 8.503906 -21.40625 C 8.570312 -21.515625 8.570312 -21.625 8.527344 -21.757812 C 8.460938 -21.890625 8.351562 -21.957031 8.21875 -21.957031 L 7.621094 -21.957031 L 7.621094 -21.9375 L 7.621094 -21.957031 L 3.003906 -21.957031 C 2.851562 -21.957031 2.738281 -21.890625 2.695312 -21.757812 C 2.628906 -21.625 2.628906 -21.515625 2.71875 -21.40625 C 3.070312 -21.007812 3.246094 -20.566406 3.246094 -20.078125 L 3.246094 -1.878906 C 3.246094 -1.371094 3.070312 -0.929688 2.71875 -0.550781 C 2.628906 -0.417969 2.628906 -0.308594 2.695312 -0.175781 C 2.738281 -0.0429688 2.851562 0 3.003906 0 L 7.886719 0 C 8.019531 0 8.128906 -0.0429688 8.195312 -0.175781 C 8.238281 -0.308594 8.238281 -0.417969 8.171875 -0.550781 L 8.128906 -0.597656 C 7.777344 -0.949219 7.621094 -1.390625 7.621094 -1.921875 L 7.621094 -12.878906 C 7.621094 -12.96875 7.644531 -13.011719 7.730469 -13.035156 C 7.820312 -13.054688 7.886719 -13.035156 7.953125 -12.96875 L 14.890625 -1.324219 C 15.019531 -1.039062 15 -0.773438 14.800781 -0.550781 C 14.710938 -0.417969 14.710938 -0.308594 14.777344 -0.175781 C 14.824219 -0.0429688 14.933594 0 15.085938 0 L 20.300781 0 C 20.433594 0 20.542969 -0.0429688 20.609375 -0.175781 C 20.65625 -0.308594 20.65625 -0.417969 20.589844 -0.550781 Z M 20.589844 -0.550781" transform="translate(66.004679, 184.470548)"/></g></g></g><g fill="#ffc1b2" fill-opacity=".302"><g><g><path d="M 20.101562 -0.398438 C 20.101562 -0.484375 20.058594 -0.550781 19.992188 -0.597656 C 19.484375 -1.015625 19.152344 -1.546875 18.976562 -2.210938 L 13.695312 -20.457031 C 13.585938 -20.808594 13.652344 -21.140625 13.917969 -21.40625 C 13.984375 -21.515625 13.984375 -21.625 13.9375 -21.757812 C 13.871094 -21.890625 13.761719 -21.957031 13.628906 -21.957031 L 7.796875 -21.957031 C 7.664062 -21.957031 7.554688 -21.890625 7.488281 -21.757812 C 7.421875 -21.625 7.421875 -21.515625 7.511719 -21.40625 C 7.777344 -21.140625 7.84375 -20.808594 7.730469 -20.457031 L 2.472656 -2.1875 C 2.296875 -1.570312 1.945312 -1.039062 1.4375 -0.597656 C 1.371094 -0.53125 1.324219 -0.464844 1.324219 -0.398438 C 1.304688 -0.289062 1.324219 -0.199219 1.390625 -0.109375 C 1.457031 -0.0234375 1.546875 0 1.679688 0 L 6.804688 0 C 6.9375 0 7.046875 -0.0429688 7.089844 -0.175781 C 7.136719 -0.308594 7.136719 -0.417969 7.046875 -0.53125 C 6.78125 -0.796875 6.714844 -1.125 6.804688 -1.480469 L 7.488281 -3.777344 C 7.554688 -4.019531 7.6875 -4.21875 7.886719 -4.351562 C 8.0625 -4.484375 8.285156 -4.574219 8.550781 -4.574219 L 12.902344 -4.574219 C 13.144531 -4.574219 13.363281 -4.484375 13.5625 -4.351562 C 13.738281 -4.21875 13.871094 -4.019531 13.960938 -3.777344 L 14.625 -1.480469 C 14.710938 -1.125 14.625 -0.816406 14.402344 -0.550781 L 14.402344 -0.53125 C 14.316406 -0.398438 14.316406 -0.289062 14.378906 -0.175781 C 14.425781 -0.0429688 14.535156 0 14.691406 0 L 19.769531 0 C 19.882812 0 19.96875 -0.0234375 20.035156 -0.109375 C 20.101562 -0.199219 20.125 -0.289062 20.101562 -0.398438 Z M 12.148438 -8.945312 L 9.300781 -8.945312 C 9.210938 -8.945312 9.144531 -8.96875 9.101562 -9.035156 C 9.035156 -9.101562 9.011719 -9.191406 9.058594 -9.277344 L 10.492188 -14.203125 C 10.515625 -14.316406 10.582031 -14.378906 10.714844 -14.378906 C 10.847656 -14.378906 10.914062 -14.316406 10.957031 -14.203125 L 12.371094 -9.277344 C 12.394531 -9.191406 12.371094 -9.101562 12.328125 -9.035156 C 12.28125 -8.96875 12.214844 -8.945312 12.148438 -8.945312 Z M 12.148438 -8.945312" transform="translate(89.309356, 184.470548)"/></g></g></g><g fill="#ffc1b2" fill-opacity=".302"><g><g><path d="M 19.882812 -21.957031 L 15.152344 -21.957031 L 15.132812 -21.914062 L 15.132812 -21.957031 L 14.710938 -21.957031 C 14.558594 -21.957031 14.445312 -21.890625 14.402344 -21.757812 C 14.335938 -21.625 14.335938 -21.515625 14.425781 -21.40625 L 14.46875 -21.359375 C 14.734375 -21.074219 14.800781 -20.765625 14.691406 -20.410156 L 11.066406 -7.863281 C 11.023438 -7.730469 10.933594 -7.664062 10.800781 -7.664062 C 10.667969 -7.664062 10.582031 -7.730469 10.535156 -7.863281 L 6.914062 -20.410156 C 6.824219 -20.765625 6.890625 -21.097656 7.15625 -21.382812 L 7.179688 -21.40625 C 7.246094 -21.515625 7.246094 -21.625 7.203125 -21.757812 C 7.136719 -21.890625 7.023438 -21.957031 6.890625 -21.957031 L 1.632812 -21.957031 C 1.480469 -21.957031 1.371094 -21.890625 1.324219 -21.757812 C 1.28125 -21.625 1.304688 -21.492188 1.4375 -21.40625 C 1.699219 -21.140625 1.945312 -20.875 2.144531 -20.566406 C 2.339844 -20.257812 2.496094 -19.902344 2.605469 -19.550781 L 7.84375 -1.414062 C 7.929688 -1.058594 7.863281 -0.773438 7.644531 -0.550781 C 7.53125 -0.417969 7.511719 -0.308594 7.578125 -0.175781 C 7.621094 -0.0429688 7.730469 0 7.886719 0 L 13.738281 0 C 13.871094 0 13.984375 -0.0429688 14.027344 -0.175781 C 14.070312 -0.308594 14.070312 -0.417969 13.984375 -0.550781 C 13.738281 -0.773438 13.675781 -1.058594 13.761719 -1.414062 L 19.019531 -19.570312 C 19.109375 -19.902344 19.242188 -20.210938 19.4375 -20.523438 C 19.617188 -20.832031 19.835938 -21.097656 20.101562 -21.359375 L 20.167969 -21.40625 C 20.234375 -21.515625 20.234375 -21.625 20.191406 -21.757812 C 20.125 -21.890625 20.015625 -21.957031 19.882812 -21.957031 Z M 19.882812 -21.957031" transform="translate(110.7585, 184.470548)"/></g></g></g><g fill="#ffc1b2" fill-opacity=".502"><g><g><path d="M 15.792969 -19.308594 C 15.085938 -20.144531 14.226562 -20.808594 13.253906 -21.273438 C 12.261719 -21.714844 11.175781 -21.957031 10.027344 -21.957031 L 2.980469 -21.957031 C 2.828125 -21.957031 2.71875 -21.890625 2.671875 -21.757812 C 2.605469 -21.625 2.628906 -21.515625 2.738281 -21.40625 C 3.136719 -20.964844 3.359375 -20.433594 3.359375 -19.835938 L 3.359375 -2.121094 C 3.359375 -1.503906 3.136719 -0.992188 2.738281 -0.550781 C 2.628906 -0.417969 2.605469 -0.308594 2.671875 -0.175781 C 2.71875 -0.0429688 2.828125 0 2.980469 0 L 7.972656 0 C 8.105469 0 8.21875 -0.0429688 8.261719 -0.175781 C 8.304688 -0.308594 8.304688 -0.417969 8.21875 -0.550781 C 7.886719 -0.90625 7.730469 -1.304688 7.730469 -1.746094 L 7.730469 -4.96875 C 7.730469 -5.191406 7.796875 -5.390625 7.972656 -5.566406 C 8.128906 -5.722656 8.328125 -5.808594 8.570312 -5.808594 L 10.027344 -5.808594 C 11.175781 -5.808594 12.261719 -6.03125 13.253906 -6.472656 C 14.226562 -6.914062 15.085938 -7.578125 15.792969 -8.4375 C 16.390625 -9.167969 16.855469 -10.007812 17.164062 -10.933594 C 17.472656 -11.863281 17.648438 -12.835938 17.648438 -13.851562 C 17.648438 -14.867188 17.472656 -15.859375 17.164062 -16.789062 C 16.855469 -17.714844 16.390625 -18.554688 15.792969 -19.308594 Z M 12.414062 -11.222656 C 11.863281 -10.515625 11.066406 -10.183594 10.027344 -10.183594 L 8.351562 -10.183594 C 8.171875 -10.183594 8.039062 -10.226562 7.910156 -10.359375 C 7.777344 -10.472656 7.730469 -10.601562 7.730469 -10.78125 L 7.730469 -16.964844 C 7.730469 -17.121094 7.777344 -17.253906 7.910156 -17.386719 C 8.039062 -17.515625 8.171875 -17.582031 8.351562 -17.582031 L 10.027344 -17.582031 C 10.824219 -17.582031 11.421875 -17.40625 11.863281 -17.054688 C 12.304688 -16.699219 12.613281 -16.300781 12.835938 -15.859375 C 13.035156 -15.417969 13.164062 -15 13.210938 -14.601562 C 13.253906 -14.203125 13.277344 -13.9375 13.277344 -13.851562 C 13.277344 -13.320312 13.1875 -12.835938 13.054688 -12.394531 C 12.902344 -11.949219 12.679688 -11.554688 12.414062 -11.222656 Z M 12.414062 -11.222656" transform="translate(4.826558, 184.718783)"/></g></g></g><g fill="#ffc1b2" fill-opacity=".502"><g><g><path d="M 18.070312 -0.550781 L 17.738281 -0.816406 C 17.386719 -1.105469 17.074219 -1.457031 16.832031 -1.855469 L 14.09375 -6.230469 C 14.003906 -6.363281 13.960938 -6.515625 14.003906 -6.691406 C 14.050781 -6.847656 14.136719 -6.980469 14.292969 -7.089844 C 14.84375 -7.488281 15.332031 -7.929688 15.726562 -8.4375 C 16.324219 -9.167969 16.789062 -10.007812 17.097656 -10.933594 C 17.40625 -11.863281 17.582031 -12.835938 17.582031 -13.851562 C 17.582031 -14.867188 17.40625 -15.859375 17.097656 -16.789062 C 16.789062 -17.714844 16.324219 -18.554688 15.726562 -19.308594 C 15.019531 -20.144531 14.160156 -20.808594 13.1875 -21.273438 C 12.195312 -21.714844 11.113281 -21.957031 9.960938 -21.957031 L 2.980469 -21.957031 C 2.828125 -21.957031 2.71875 -21.890625 2.671875 -21.757812 C 2.605469 -21.625 2.628906 -21.515625 2.738281 -21.40625 C 3.09375 -21.007812 3.292969 -20.542969 3.292969 -20.015625 L 3.292969 -1.898438 C 3.292969 -1.390625 3.113281 -0.949219 2.785156 -0.574219 C 2.652344 -0.441406 2.628906 -0.332031 2.695312 -0.199219 C 2.738281 -0.0664062 2.851562 0 3.027344 0 L 7.972656 0 C 8.105469 0 8.21875 -0.0429688 8.261719 -0.175781 C 8.304688 -0.308594 8.304688 -0.417969 8.21875 -0.550781 C 7.84375 -0.949219 7.664062 -1.390625 7.664062 -1.921875 L 7.664062 -5.148438 C 7.664062 -5.324219 7.710938 -5.476562 7.84375 -5.609375 C 7.972656 -5.742188 8.128906 -5.808594 8.304688 -5.808594 L 8.835938 -5.808594 C 9.058594 -5.808594 9.253906 -5.699219 9.386719 -5.5 L 12.105469 -1.125 C 12.214844 -0.929688 12.195312 -0.75 12.0625 -0.574219 L 12.039062 -0.550781 C 11.949219 -0.417969 11.949219 -0.308594 12.015625 -0.175781 C 12.0625 -0.0429688 12.171875 0 12.328125 0 L 17.914062 0 C 18.070312 0 18.15625 -0.0664062 18.203125 -0.199219 C 18.246094 -0.332031 18.203125 -0.441406 18.070312 -0.550781 Z M 12.347656 -11.222656 C 11.796875 -10.515625 11 -10.183594 9.960938 -10.183594 L 8.304688 -10.183594 C 8.128906 -10.183594 7.972656 -10.226562 7.84375 -10.359375 C 7.710938 -10.492188 7.664062 -10.648438 7.664062 -10.824219 L 7.664062 -16.921875 C 7.664062 -17.097656 7.710938 -17.253906 7.84375 -17.386719 C 7.972656 -17.515625 8.128906 -17.582031 8.304688 -17.582031 L 9.960938 -17.582031 C 10.757812 -17.582031 11.355469 -17.40625 11.796875 -17.054688 C 12.238281 -16.699219 12.546875 -16.300781 12.769531 -15.859375 C 12.96875 -15.417969 13.097656 -15 13.144531 -14.601562 C 13.1875 -14.203125 13.210938 -13.9375 13.210938 -13.851562 C 13.210938 -13.320312 13.121094 -12.835938 12.988281 -12.394531 C 12.835938 -11.949219 12.613281 -11.554688 12.347656 -11.222656 Z M 12.347656 -11.222656" transform="translate(24.265528, 184.718783)"/></g></g></g><g fill="#ffc1b2" fill-opacity=".502"><g><g><path d="M 20.101562 -0.398438 C 20.101562 -0.484375 20.058594 -0.550781 19.992188 -0.597656 C 19.484375 -1.015625 19.152344 -1.546875 18.976562 -2.210938 L 13.695312 -20.457031 C 13.585938 -20.808594 13.652344 -21.140625 13.917969 -21.40625 C 13.984375 -21.515625 13.984375 -21.625 13.9375 -21.757812 C 13.871094 -21.890625 13.761719 -21.957031 13.628906 -21.957031 L 7.796875 -21.957031 C 7.664062 -21.957031 7.554688 -21.890625 7.488281 -21.757812 C 7.421875 -21.625 7.421875 -21.515625 7.511719 -21.40625 C 7.777344 -21.140625 7.84375 -20.808594 7.730469 -20.457031 L 2.472656 -2.1875 C 2.296875 -1.570312 1.945312 -1.039062 1.4375 -0.597656 C 1.371094 -0.53125 1.324219 -0.464844 1.324219 -0.398438 C 1.304688 -0.289062 1.324219 -0.199219 1.390625 -0.109375 C 1.457031 -0.0234375 1.546875 0 1.679688 0 L 6.804688 0 C 6.9375 0 7.046875 -0.0429688 7.089844 -0.175781 C 7.136719 -0.308594 7.136719 -0.417969 7.046875 -0.53125 C 6.78125 -0.796875 6.714844 -1.125 6.804688 -1.480469 L 7.488281 -3.777344 C 7.554688 -4.019531 7.6875 -4.21875 7.886719 -4.351562 C 8.0625 -4.484375 8.285156 -4.574219 8.550781 -4.574219 L 12.902344 -4.574219 C 13.144531 -4.574219 13.363281 -4.484375 13.5625 -4.351562 C 13.738281 -4.21875 13.871094 -4.019531 13.960938 -3.777344 L 14.625 -1.480469 C 14.710938 -1.125 14.625 -0.816406 14.402344 -0.550781 L 14.402344 -0.53125 C 14.316406 -0.398438 14.316406 -0.289062 14.378906 -0.175781 C 14.425781 -0.0429688 14.535156 0 14.691406 0 L 19.769531 0 C 19.882812 0 19.96875 -0.0234375 20.035156 -0.109375 C 20.101562 -0.199219 20.125 -0.289062 20.101562 -0.398438 Z M 12.148438 -8.945312 L 9.300781 -8.945312 C 9.210938 -8.945312 9.144531 -8.96875 9.101562 -9.035156 C 9.035156 -9.101562 9.011719 -9.191406 9.058594 -9.277344 L 10.492188 -14.203125 C 10.515625 -14.316406 10.582031 -14.378906 10.714844 -14.378906 C 10.847656 -14.378906 10.914062 -14.316406 10.957031 -14.203125 L 12.371094 -9.277344 C 12.394531 -9.191406 12.371094 -9.101562 12.328125 -9.035156 C 12.28125 -8.96875 12.214844 -8.945312 12.148438 -8.945312 Z M 12.148438 -8.945312" transform="translate(45.140338, 184.718783)"/></g></g></g><g fill="#ffc1b2" fill-opacity=".502"><g><g><path d="M 20.589844 -0.550781 L 20.566406 -0.574219 C 20.210938 -0.929688 20.058594 -1.371094 20.058594 -1.898438 L 20.058594 -20.058594 C 20.058594 -20.566406 20.210938 -21.007812 20.566406 -21.382812 L 20.589844 -21.40625 C 20.65625 -21.515625 20.65625 -21.625 20.609375 -21.757812 C 20.542969 -21.890625 20.433594 -21.957031 20.300781 -21.957031 L 15.417969 -21.957031 C 15.265625 -21.957031 15.152344 -21.890625 15.109375 -21.757812 C 15.042969 -21.625 15.042969 -21.515625 15.132812 -21.40625 L 15.152344 -21.382812 C 15.484375 -21.007812 15.660156 -20.566406 15.660156 -20.058594 L 15.660156 -9.078125 C 15.660156 -8.992188 15.617188 -8.925781 15.53125 -8.902344 C 15.441406 -8.878906 15.375 -8.902344 15.332031 -8.992188 L 8.417969 -20.609375 C 8.238281 -20.875 8.285156 -21.140625 8.503906 -21.40625 C 8.570312 -21.515625 8.570312 -21.625 8.527344 -21.757812 C 8.460938 -21.890625 8.351562 -21.957031 8.21875 -21.957031 L 7.621094 -21.957031 L 7.621094 -21.9375 L 7.621094 -21.957031 L 3.003906 -21.957031 C 2.851562 -21.957031 2.738281 -21.890625 2.695312 -21.757812 C 2.628906 -21.625 2.628906 -21.515625 2.71875 -21.40625 C 3.070312 -21.007812 3.246094 -20.566406 3.246094 -20.078125 L 3.246094 -1.878906 C 3.246094 -1.371094 3.070312 -0.929688 2.71875 -0.550781 C 2.628906 -0.417969 2.628906 -0.308594 2.695312 -0.175781 C 2.738281 -0.0429688 2.851562 0 3.003906 0 L 7.886719 0 C 8.019531 0 8.128906 -0.0429688 8.195312 -0.175781 C 8.238281 -0.308594 8.238281 -0.417969 8.171875 -0.550781 L 8.128906 -0.597656 C 7.777344 -0.949219 7.621094 -1.390625 7.621094 -1.921875 L 7.621094 -12.878906 C 7.621094 -12.96875 7.644531 -13.011719 7.730469 -13.035156 C 7.820312 -13.054688 7.886719 -13.035156 7.953125 -12.96875 L 14.890625 -1.324219 C 15.019531 -1.039062 15 -0.773438 14.800781 -0.550781 C 14.710938 -0.417969 14.710938 -0.308594 14.777344 -0.175781 C 14.824219 -0.0429688 14.933594 0 15.085938 0 L 20.300781 0 C 20.433594 0 20.542969 -0.0429688 20.609375 -0.175781 C 20.65625 -0.308594 20.65625 -0.417969 20.589844 -0.550781 Z M 20.589844 -0.550781" transform="translate(66.589483, 184.718783)"/></g></g></g><g fill="#ffc1b2" fill-opacity=".502"><g><g><path d="M 20.101562 -0.398438 C 20.101562 -0.484375 20.058594 -0.550781 19.992188 -0.597656 C 19.484375 -1.015625 19.152344 -1.546875 18.976562 -2.210938 L 13.695312 -20.457031 C 13.585938 -20.808594 13.652344 -21.140625 13.917969 -21.40625 C 13.984375 -21.515625 13.984375 -21.625 13.9375 -21.757812 C 13.871094 -21.890625 13.761719 -21.957031 13.628906 -21.957031 L 7.796875 -21.957031 C 7.664062 -21.957031 7.554688 -21.890625 7.488281 -21.757812 C 7.421875 -21.625 7.421875 -21.515625 7.511719 -21.40625 C 7.777344 -21.140625 7.84375 -20.808594 7.730469 -20.457031 L 2.472656 -2.1875 C 2.296875 -1.570312 1.945312 -1.039062 1.4375 -0.597656 C 1.371094 -0.53125 1.324219 -0.464844 1.324219 -0.398438 C 1.304688 -0.289062 1.324219 -0.199219 1.390625 -0.109375 C 1.457031 -0.0234375 1.546875 0 1.679688 0 L 6.804688 0 C 6.9375 0 7.046875 -0.0429688 7.089844 -0.175781 C 7.136719 -0.308594 7.136719 -0.417969 7.046875 -0.53125 C 6.78125 -0.796875 6.714844 -1.125 6.804688 -1.480469 L 7.488281 -3.777344 C 7.554688 -4.019531 7.6875 -4.21875 7.886719 -4.351562 C 8.0625 -4.484375 8.285156 -4.574219 8.550781 -4.574219 L 12.902344 -4.574219 C 13.144531 -4.574219 13.363281 -4.484375 13.5625 -4.351562 C 13.738281 -4.21875 13.871094 -4.019531 13.960938 -3.777344 L 14.625 -1.480469 C 14.710938 -1.125 14.625 -0.816406 14.402344 -0.550781 L 14.402344 -0.53125 C 14.316406 -0.398438 14.316406 -0.289062 14.378906 -0.175781 C 14.425781 -0.0429688 14.535156 0 14.691406 0 L 19.769531 0 C 19.882812 0 19.96875 -0.0234375 20.035156 -0.109375 C 20.101562 -0.199219 20.125 -0.289062 20.101562 -0.398438 Z M 12.148438 -8.945312 L 9.300781 -8.945312 C 9.210938 -8.945312 9.144531 -8.96875 9.101562 -9.035156 C 9.035156 -9.101562 9.011719 -9.191406 9.058594 -9.277344 L 10.492188 -14.203125 C 10.515625 -14.316406 10.582031 -14.378906 10.714844 -14.378906 C 10.847656 -14.378906 10.914062 -14.316406 10.957031 -14.203125 L 12.371094 -9.277344 C 12.394531 -9.191406 12.371094 -9.101562 12.328125 -9.035156 C 12.28125 -8.96875 12.214844 -8.945312 12.148438 -8.945312 Z M 12.148438 -8.945312" transform="translate(89.89416, 184.718783)"/></g></g></g><g fill="#ffc1b2" fill-opacity=".502"><g><g><path d="M 19.882812 -21.957031 L 15.152344 -21.957031 L 15.132812 -21.914062 L 15.132812 -21.957031 L 14.710938 -21.957031 C 14.558594 -21.957031 14.445312 -21.890625 14.402344 -21.757812 C 14.335938 -21.625 14.335938 -21.515625 14.425781 -21.40625 L 14.46875 -21.359375 C 14.734375 -21.074219 14.800781 -20.765625 14.691406 -20.410156 L 11.066406 -7.863281 C 11.023438 -7.730469 10.933594 -7.664062 10.800781 -7.664062 C 10.667969 -7.664062 10.582031 -7.730469 10.535156 -7.863281 L 6.914062 -20.410156 C 6.824219 -20.765625 6.890625 -21.097656 7.15625 -21.382812 L 7.179688 -21.40625 C 7.246094 -21.515625 7.246094 -21.625 7.203125 -21.757812 C 7.136719 -21.890625 7.023438 -21.957031 6.890625 -21.957031 L 1.632812 -21.957031 C 1.480469 -21.957031 1.371094 -21.890625 1.324219 -21.757812 C 1.28125 -21.625 1.304688 -21.492188 1.4375 -21.40625 C 1.699219 -21.140625 1.945312 -20.875 2.144531 -20.566406 C 2.339844 -20.257812 2.496094 -19.902344 2.605469 -19.550781 L 7.84375 -1.414062 C 7.929688 -1.058594 7.863281 -0.773438 7.644531 -0.550781 C 7.53125 -0.417969 7.511719 -0.308594 7.578125 -0.175781 C 7.621094 -0.0429688 7.730469 0 7.886719 0 L 13.738281 0 C 13.871094 0 13.984375 -0.0429688 14.027344 -0.175781 C 14.070312 -0.308594 14.070312 -0.417969 13.984375 -0.550781 C 13.738281 -0.773438 13.675781 -1.058594 13.761719 -1.414062 L 19.019531 -19.570312 C 19.109375 -19.902344 19.242188 -20.210938 19.4375 -20.523438 C 19.617188 -20.832031 19.835938 -21.097656 20.101562 -21.359375 L 20.167969 -21.40625 C 20.234375 -21.515625 20.234375 -21.625 20.191406 -21.757812 C 20.125 -21.890625 20.015625 -21.957031 19.882812 -21.957031 Z M 19.882812 -21.957031" transform="translate(111.343304, 184.718783)"/></g></g></g><g fill="#fff" fill-opacity="1"><g><g><path d="M 15.792969 -19.308594 C 15.085938 -20.144531 14.226562 -20.808594 13.253906 -21.273438 C 12.261719 -21.714844 11.175781 -21.957031 10.027344 -21.957031 L 2.980469 -21.957031 C 2.828125 -21.957031 2.71875 -21.890625 2.671875 -21.757812 C 2.605469 -21.625 2.628906 -21.515625 2.738281 -21.40625 C 3.136719 -20.964844 3.359375 -20.433594 3.359375 -19.835938 L 3.359375 -2.121094 C 3.359375 -1.503906 3.136719 -0.992188 2.738281 -0.550781 C 2.628906 -0.417969 2.605469 -0.308594 2.671875 -0.175781 C 2.71875 -0.0429688 2.828125 0 2.980469 0 L 7.972656 0 C 8.105469 0 8.21875 -0.0429688 8.261719 -0.175781 C 8.304688 -0.308594 8.304688 -0.417969 8.21875 -0.550781 C 7.886719 -0.90625 7.730469 -1.304688 7.730469 -1.746094 L 7.730469 -4.96875 C 7.730469 -5.191406 7.796875 -5.390625 7.972656 -5.566406 C 8.128906 -5.722656 8.328125 -5.808594 8.570312 -5.808594 L 10.027344 -5.808594 C 11.175781 -5.808594 12.261719 -6.03125 13.253906 -6.472656 C 14.226562 -6.914062 15.085938 -7.578125 15.792969 -8.4375 C 16.390625 -9.167969 16.855469 -10.007812 17.164062 -10.933594 C 17.472656 -11.863281 17.648438 -12.835938 17.648438 -13.851562 C 17.648438 -14.867188 17.472656 -15.859375 17.164062 -16.789062 C 16.855469 -17.714844 16.390625 -18.554688 15.792969 -19.308594 Z M 12.414062 -11.222656 C 11.863281 -10.515625 11.066406 -10.183594 10.027344 -10.183594 L 8.351562 -10.183594 C 8.171875 -10.183594 8.039062 -10.226562 7.910156 -10.359375 C 7.777344 -10.472656 7.730469 -10.601562 7.730469 -10.78125 L 7.730469 -16.964844 C 7.730469 -17.121094 7.777344 -17.253906 7.910156 -17.386719 C 8.039062 -17.515625 8.171875 -17.582031 8.351562 -17.582031 L 10.027344 -17.582031 C 10.824219 -17.582031 11.421875 -17.40625 11.863281 -17.054688 C 12.304688 -16.699219 12.613281 -16.300781 12.835938 -15.859375 C 13.035156 -15.417969 13.164062 -15 13.210938 -14.601562 C 13.253906 -14.203125 13.277344 -13.9375 13.277344 -13.851562 C 13.277344 -13.320312 13.1875 -12.835938 13.054688 -12.394531 C 12.902344 -11.949219 12.679688 -11.554688 12.414062 -11.222656 Z M 12.414062 -11.222656" transform="translate(5.411362, 184.967015)"/></g></g></g><g fill="#fff" fill-opacity="1"><g><g><path d="M 18.070312 -0.550781 L 17.738281 -0.816406 C 17.386719 -1.105469 17.074219 -1.457031 16.832031 -1.855469 L 14.09375 -6.230469 C 14.003906 -6.363281 13.960938 -6.515625 14.003906 -6.691406 C 14.050781 -6.847656 14.136719 -6.980469 14.292969 -7.089844 C 14.84375 -7.488281 15.332031 -7.929688 15.726562 -8.4375 C 16.324219 -9.167969 16.789062 -10.007812 17.097656 -10.933594 C 17.40625 -11.863281 17.582031 -12.835938 17.582031 -13.851562 C 17.582031 -14.867188 17.40625 -15.859375 17.097656 -16.789062 C 16.789062 -17.714844 16.324219 -18.554688 15.726562 -19.308594 C 15.019531 -20.144531 14.160156 -20.808594 13.1875 -21.273438 C 12.195312 -21.714844 11.113281 -21.957031 9.960938 -21.957031 L 2.980469 -21.957031 C 2.828125 -21.957031 2.71875 -21.890625 2.671875 -21.757812 C 2.605469 -21.625 2.628906 -21.515625 2.738281 -21.40625 C 3.09375 -21.007812 3.292969 -20.542969 3.292969 -20.015625 L 3.292969 -1.898438 C 3.292969 -1.390625 3.113281 -0.949219 2.785156 -0.574219 C 2.652344 -0.441406 2.628906 -0.332031 2.695312 -0.199219 C 2.738281 -0.0664062 2.851562 0 3.027344 0 L 7.972656 0 C 8.105469 0 8.21875 -0.0429688 8.261719 -0.175781 C 8.304688 -0.308594 8.304688 -0.417969 8.21875 -0.550781 C 7.84375 -0.949219 7.664062 -1.390625 7.664062 -1.921875 L 7.664062 -5.148438 C 7.664062 -5.324219 7.710938 -5.476562 7.84375 -5.609375 C 7.972656 -5.742188 8.128906 -5.808594 8.304688 -5.808594 L 8.835938 -5.808594 C 9.058594 -5.808594 9.253906 -5.699219 9.386719 -5.5 L 12.105469 -1.125 C 12.214844 -0.929688 12.195312 -0.75 12.0625 -0.574219 L 12.039062 -0.550781 C 11.949219 -0.417969 11.949219 -0.308594 12.015625 -0.175781 C 12.0625 -0.0429688 12.171875 0 12.328125 0 L 17.914062 0 C 18.070312 0 18.15625 -0.0664062 18.203125 -0.199219 C 18.246094 -0.332031 18.203125 -0.441406 18.070312 -0.550781 Z M 12.347656 -11.222656 C 11.796875 -10.515625 11 -10.183594 9.960938 -10.183594 L 8.304688 -10.183594 C 8.128906 -10.183594 7.972656 -10.226562 7.84375 -10.359375 C 7.710938 -10.492188 7.664062 -10.648438 7.664062 -10.824219 L 7.664062 -16.921875 C 7.664062 -17.097656 7.710938 -17.253906 7.84375 -17.386719 C 7.972656 -17.515625 8.128906 -17.582031 8.304688 -17.582031 L 9.960938 -17.582031 C 10.757812 -17.582031 11.355469 -17.40625 11.796875 -17.054688 C 12.238281 -16.699219 12.546875 -16.300781 12.769531 -15.859375 C 12.96875 -15.417969 13.097656 -15 13.144531 -14.601562 C 13.1875 -14.203125 13.210938 -13.9375 13.210938 -13.851562 C 13.210938 -13.320312 13.121094 -12.835938 12.988281 -12.394531 C 12.835938 -11.949219 12.613281 -11.554688 12.347656 -11.222656 Z M 12.347656 -11.222656" transform="translate(24.850332, 184.967015)"/></g></g></g><g fill="#fff" fill-opacity="1"><g><g><path d="M 20.101562 -0.398438 C 20.101562 -0.484375 20.058594 -0.550781 19.992188 -0.597656 C 19.484375 -1.015625 19.152344 -1.546875 18.976562 -2.210938 L 13.695312 -20.457031 C 13.585938 -20.808594 13.652344 -21.140625 13.917969 -21.40625 C 13.984375 -21.515625 13.984375 -21.625 13.9375 -21.757812 C 13.871094 -21.890625 13.761719 -21.957031 13.628906 -21.957031 L 7.796875 -21.957031 C 7.664062 -21.957031 7.554688 -21.890625 7.488281 -21.757812 C 7.421875 -21.625 7.421875 -21.515625 7.511719 -21.40625 C 7.777344 -21.140625 7.84375 -20.808594 7.730469 -20.457031 L 2.472656 -2.1875 C 2.296875 -1.570312 1.945312 -1.039062 1.4375 -0.597656 C 1.371094 -0.53125 1.324219 -0.464844 1.324219 -0.398438 C 1.304688 -0.289062 1.324219 -0.199219 1.390625 -0.109375 C 1.457031 -0.0234375 1.546875 0 1.679688 0 L 6.804688 0 C 6.9375 0 7.046875 -0.0429688 7.089844 -0.175781 C 7.136719 -0.308594 7.136719 -0.417969 7.046875 -0.53125 C 6.78125 -0.796875 6.714844 -1.125 6.804688 -1.480469 L 7.488281 -3.777344 C 7.554688 -4.019531 7.6875 -4.21875 7.886719 -4.351562 C 8.0625 -4.484375 8.285156 -4.574219 8.550781 -4.574219 L 12.902344 -4.574219 C 13.144531 -4.574219 13.363281 -4.484375 13.5625 -4.351562 C 13.738281 -4.21875 13.871094 -4.019531 13.960938 -3.777344 L 14.625 -1.480469 C 14.710938 -1.125 14.625 -0.816406 14.402344 -0.550781 L 14.402344 -0.53125 C 14.316406 -0.398438 14.316406 -0.289062 14.378906 -0.175781 C 14.425781 -0.0429688 14.535156 0 14.691406 0 L 19.769531 0 C 19.882812 0 19.96875 -0.0234375 20.035156 -0.109375 C 20.101562 -0.199219 20.125 -0.289062 20.101562 -0.398438 Z M 12.148438 -8.945312 L 9.300781 -8.945312 C 9.210938 -8.945312 9.144531 -8.96875 9.101562 -9.035156 C 9.035156 -9.101562 9.011719 -9.191406 9.058594 -9.277344 L 10.492188 -14.203125 C 10.515625 -14.316406 10.582031 -14.378906 10.714844 -14.378906 C 10.847656 -14.378906 10.914062 -14.316406 10.957031 -14.203125 L 12.371094 -9.277344 C 12.394531 -9.191406 12.371094 -9.101562 12.328125 -9.035156 C 12.28125 -8.96875 12.214844 -8.945312 12.148438 -8.945312 Z M 12.148438 -8.945312" transform="translate(45.725142, 184.967015)"/></g></g></g><g fill="#fff" fill-opacity="1"><g><g><path d="M 20.589844 -0.550781 L 20.566406 -0.574219 C 20.210938 -0.929688 20.058594 -1.371094 20.058594 -1.898438 L 20.058594 -20.058594 C 20.058594 -20.566406 20.210938 -21.007812 20.566406 -21.382812 L 20.589844 -21.40625 C 20.65625 -21.515625 20.65625 -21.625 20.609375 -21.757812 C 20.542969 -21.890625 20.433594 -21.957031 20.300781 -21.957031 L 15.417969 -21.957031 C 15.265625 -21.957031 15.152344 -21.890625 15.109375 -21.757812 C 15.042969 -21.625 15.042969 -21.515625 15.132812 -21.40625 L 15.152344 -21.382812 C 15.484375 -21.007812 15.660156 -20.566406 15.660156 -20.058594 L 15.660156 -9.078125 C 15.660156 -8.992188 15.617188 -8.925781 15.53125 -8.902344 C 15.441406 -8.878906 15.375 -8.902344 15.332031 -8.992188 L 8.417969 -20.609375 C 8.238281 -20.875 8.285156 -21.140625 8.503906 -21.40625 C 8.570312 -21.515625 8.570312 -21.625 8.527344 -21.757812 C 8.460938 -21.890625 8.351562 -21.957031 8.21875 -21.957031 L 7.621094 -21.957031 L 7.621094 -21.9375 L 7.621094 -21.957031 L 3.003906 -21.957031 C 2.851562 -21.957031 2.738281 -21.890625 2.695312 -21.757812 C 2.628906 -21.625 2.628906 -21.515625 2.71875 -21.40625 C 3.070312 -21.007812 3.246094 -20.566406 3.246094 -20.078125 L 3.246094 -1.878906 C 3.246094 -1.371094 3.070312 -0.929688 2.71875 -0.550781 C 2.628906 -0.417969 2.628906 -0.308594 2.695312 -0.175781 C 2.738281 -0.0429688 2.851562 0 3.003906 0 L 7.886719 0 C 8.019531 0 8.128906 -0.0429688 8.195312 -0.175781 C 8.238281 -0.308594 8.238281 -0.417969 8.171875 -0.550781 L 8.128906 -0.597656 C 7.777344 -0.949219 7.621094 -1.390625 7.621094 -1.921875 L 7.621094 -12.878906 C 7.621094 -12.96875 7.644531 -13.011719 7.730469 -13.035156 C 7.820312 -13.054688 7.886719 -13.035156 7.953125 -12.96875 L 14.890625 -1.324219 C 15.019531 -1.039062 15 -0.773438 14.800781 -0.550781 C 14.710938 -0.417969 14.710938 -0.308594 14.777344 -0.175781 C 14.824219 -0.0429688 14.933594 0 15.085938 0 L 20.300781 0 C 20.433594 0 20.542969 -0.0429688 20.609375 -0.175781 C 20.65625 -0.308594 20.65625 -0.417969 20.589844 -0.550781 Z M 20.589844 -0.550781" transform="translate(67.174287, 184.967015)"/></g></g></g><g fill="#fff" fill-opacity="1"><g><g><path d="M 20.101562 -0.398438 C 20.101562 -0.484375 20.058594 -0.550781 19.992188 -0.597656 C 19.484375 -1.015625 19.152344 -1.546875 18.976562 -2.210938 L 13.695312 -20.457031 C 13.585938 -20.808594 13.652344 -21.140625 13.917969 -21.40625 C 13.984375 -21.515625 13.984375 -21.625 13.9375 -21.757812 C 13.871094 -21.890625 13.761719 -21.957031 13.628906 -21.957031 L 7.796875 -21.957031 C 7.664062 -21.957031 7.554688 -21.890625 7.488281 -21.757812 C 7.421875 -21.625 7.421875 -21.515625 7.511719 -21.40625 C 7.777344 -21.140625 7.84375 -20.808594 7.730469 -20.457031 L 2.472656 -2.1875 C 2.296875 -1.570312 1.945312 -1.039062 1.4375 -0.597656 C 1.371094 -0.53125 1.324219 -0.464844 1.324219 -0.398438 C 1.304688 -0.289062 1.324219 -0.199219 1.390625 -0.109375 C 1.457031 -0.0234375 1.546875 0 1.679688 0 L 6.804688 0 C 6.9375 0 7.046875 -0.0429688 7.089844 -0.175781 C 7.136719 -0.308594 7.136719 -0.417969 7.046875 -0.53125 C 6.78125 -0.796875 6.714844 -1.125 6.804688 -1.480469 L 7.488281 -3.777344 C 7.554688 -4.019531 7.6875 -4.21875 7.886719 -4.351562 C 8.0625 -4.484375 8.285156 -4.574219 8.550781 -4.574219 L 12.902344 -4.574219 C 13.144531 -4.574219 13.363281 -4.484375 13.5625 -4.351562 C 13.738281 -4.21875 13.871094 -4.019531 13.960938 -3.777344 L 14.625 -1.480469 C 14.710938 -1.125 14.625 -0.816406 14.402344 -0.550781 L 14.402344 -0.53125 C 14.316406 -0.398438 14.316406 -0.289062 14.378906 -0.175781 C 14.425781 -0.0429688 14.535156 0 14.691406 0 L 19.769531 0 C 19.882812 0 19.96875 -0.0234375 20.035156 -0.109375 C 20.101562 -0.199219 20.125 -0.289062 20.101562 -0.398438 Z M 12.148438 -8.945312 L 9.300781 -8.945312 C 9.210938 -8.945312 9.144531 -8.96875 9.101562 -9.035156 C 9.035156 -9.101562 9.011719 -9.191406 9.058594 -9.277344 L 10.492188 -14.203125 C 10.515625 -14.316406 10.582031 -14.378906 10.714844 -14.378906 C 10.847656 -14.378906 10.914062 -14.316406 10.957031 -14.203125 L 12.371094 -9.277344 C 12.394531 -9.191406 12.371094 -9.101562 12.328125 -9.035156 C 12.28125 -8.96875 12.214844 -8.945312 12.148438 -8.945312 Z M 12.148438 -8.945312" transform="translate(90.478964, 184.967015)"/></g></g></g><g fill="#fff" fill-opacity="1"><g><g><path d="M 19.882812 -21.957031 L 15.152344 -21.957031 L 15.132812 -21.914062 L 15.132812 -21.957031 L 14.710938 -21.957031 C 14.558594 -21.957031 14.445312 -21.890625 14.402344 -21.757812 C 14.335938 -21.625 14.335938 -21.515625 14.425781 -21.40625 L 14.46875 -21.359375 C 14.734375 -21.074219 14.800781 -20.765625 14.691406 -20.410156 L 11.066406 -7.863281 C 11.023438 -7.730469 10.933594 -7.664062 10.800781 -7.664062 C 10.667969 -7.664062 10.582031 -7.730469 10.535156 -7.863281 L 6.914062 -20.410156 C 6.824219 -20.765625 6.890625 -21.097656 7.15625 -21.382812 L 7.179688 -21.40625 C 7.246094 -21.515625 7.246094 -21.625 7.203125 -21.757812 C 7.136719 -21.890625 7.023438 -21.957031 6.890625 -21.957031 L 1.632812 -21.957031 C 1.480469 -21.957031 1.371094 -21.890625 1.324219 -21.757812 C 1.28125 -21.625 1.304688 -21.492188 1.4375 -21.40625 C 1.699219 -21.140625 1.945312 -20.875 2.144531 -20.566406 C 2.339844 -20.257812 2.496094 -19.902344 2.605469 -19.550781 L 7.84375 -1.414062 C 7.929688 -1.058594 7.863281 -0.773438 7.644531 -0.550781 C 7.53125 -0.417969 7.511719 -0.308594 7.578125 -0.175781 C 7.621094 -0.0429688 7.730469 0 7.886719 0 L 13.738281 0 C 13.871094 0 13.984375 -0.0429688 14.027344 -0.175781 C 14.070312 -0.308594 14.070312 -0.417969 13.984375 -0.550781 C 13.738281 -0.773438 13.675781 -1.058594 13.761719 -1.414062 L 19.019531 -19.570312 C 19.109375 -19.902344 19.242188 -20.210938 19.4375 -20.523438 C 19.617188 -20.832031 19.835938 -21.097656 20.101562 -21.359375 L 20.167969 -21.40625 C 20.234375 -21.515625 20.234375 -21.625 20.191406 -21.757812 C 20.125 -21.890625 20.015625 -21.957031 19.882812 -21.957031 Z M 19.882812 -21.957031" transform="translate(111.928108, 184.967015)"/></g></g></g><g fill="#ffc1b2" fill-opacity=".302"><g><g><path d="M 18.15625 -16.523438 L 18.046875 -16.65625 C 17.738281 -16.964844 17.539062 -17.320312 17.40625 -17.714844 C 17.007812 -18.953125 16.191406 -19.96875 15 -20.765625 C 14.335938 -21.183594 13.585938 -21.515625 12.746094 -21.738281 C 11.90625 -21.957031 11.046875 -22.066406 10.117188 -22.066406 C 9.191406 -22.066406 8.285156 -21.9375 7.421875 -21.714844 C 6.5625 -21.492188 5.789062 -21.164062 5.101562 -20.742188 C 4.175781 -20.167969 3.492188 -19.484375 3.003906 -18.667969 C 2.519531 -17.847656 2.296875 -16.964844 2.296875 -15.992188 C 2.296875 -14.136719 3.160156 -12.546875 4.925781 -11.242188 C 5.542969 -10.757812 6.207031 -10.359375 6.9375 -10.007812 C 7.664062 -9.652344 8.417969 -9.300781 9.167969 -8.992188 C 9.609375 -8.769531 10.09375 -8.550781 10.582031 -8.328125 C 11.066406 -8.105469 11.507812 -7.863281 11.90625 -7.644531 C 12.304688 -7.398438 12.636719 -7.15625 12.902344 -6.914062 C 13.164062 -6.648438 13.296875 -6.40625 13.296875 -6.164062 C 13.296875 -5.855469 13.1875 -5.566406 12.96875 -5.347656 C 12.746094 -5.125 12.457031 -4.925781 12.128906 -4.792969 C 11.796875 -4.660156 11.441406 -4.550781 11.046875 -4.484375 C 10.648438 -4.394531 10.292969 -4.375 9.941406 -4.375 C 9.5 -4.375 9.058594 -4.417969 8.570312 -4.527344 C 8.085938 -4.617188 7.664062 -4.792969 7.332031 -5.035156 C 7.246094 -5.101562 7.179688 -5.191406 7.179688 -5.300781 C 7.15625 -5.410156 7.179688 -5.5 7.269531 -5.589844 L 7.289062 -5.609375 C 7.355469 -5.722656 7.355469 -5.832031 7.3125 -5.964844 C 7.246094 -6.097656 7.136719 -6.164062 7.003906 -6.164062 L 2.121094 -6.164062 C 1.964844 -6.164062 1.855469 -6.097656 1.8125 -5.964844 C 1.746094 -5.832031 1.746094 -5.722656 1.832031 -5.609375 L 1.921875 -5.523438 C 2.230469 -5.167969 2.429688 -4.792969 2.5625 -4.417969 C 2.960938 -3.136719 3.753906 -2.121094 4.992188 -1.347656 C 5.65625 -0.90625 6.429688 -0.574219 7.269531 -0.351562 C 8.105469 -0.109375 9.011719 0 9.941406 0 C 11.046875 0 12.082031 -0.15625 13.035156 -0.464844 C 13.984375 -0.773438 14.800781 -1.191406 15.484375 -1.746094 C 16.171875 -2.273438 16.699219 -2.9375 17.097656 -3.6875 C 17.472656 -4.441406 17.671875 -5.257812 17.671875 -6.164062 C 17.671875 -7.113281 17.453125 -7.953125 17.03125 -8.660156 C 16.613281 -9.367188 16.082031 -9.984375 15.417969 -10.515625 C 14.757812 -11.046875 14.050781 -11.488281 13.253906 -11.882812 C 12.457031 -12.28125 11.6875 -12.636719 10.933594 -12.988281 C 10.425781 -13.210938 9.917969 -13.429688 9.410156 -13.675781 C 8.902344 -13.894531 8.4375 -14.136719 8.039062 -14.402344 C 7.644531 -14.644531 7.3125 -14.910156 7.046875 -15.175781 C 6.78125 -15.441406 6.671875 -15.707031 6.671875 -15.992188 C 6.671875 -16.234375 6.757812 -16.457031 6.980469 -16.679688 C 7.179688 -16.898438 7.445312 -17.074219 7.777344 -17.230469 C 8.085938 -17.363281 8.460938 -17.472656 8.878906 -17.5625 C 9.277344 -17.648438 9.699219 -17.695312 10.117188 -17.695312 C 10.601562 -17.695312 11.089844 -17.628906 11.53125 -17.539062 C 11.972656 -17.429688 12.328125 -17.273438 12.636719 -17.074219 C 12.722656 -17.007812 12.789062 -16.921875 12.789062 -16.8125 C 12.789062 -16.699219 12.769531 -16.613281 12.703125 -16.546875 L 12.703125 -16.523438 C 12.613281 -16.390625 12.613281 -16.28125 12.679688 -16.171875 C 12.722656 -16.039062 12.835938 -15.992188 12.988281 -15.992188 L 17.871094 -15.992188 C 18.003906 -15.992188 18.113281 -16.039062 18.179688 -16.171875 C 18.222656 -16.28125 18.222656 -16.390625 18.15625 -16.523438 Z M 18.15625 -16.523438" transform="translate(8.166601, 212.582086)"/></g></g></g><g fill="#ffc1b2" fill-opacity=".302"><g><g><path d="M 19.195312 -0.550781 L 19.152344 -0.574219 C 18.796875 -0.949219 18.644531 -1.390625 18.644531 -1.921875 L 18.644531 -20.035156 C 18.644531 -20.542969 18.796875 -20.984375 19.152344 -21.382812 L 19.195312 -21.40625 C 19.261719 -21.515625 19.261719 -21.625 19.195312 -21.757812 C 19.128906 -21.890625 19.042969 -21.957031 18.910156 -21.957031 L 14.003906 -21.957031 C 13.871094 -21.957031 13.761719 -21.890625 13.695312 -21.757812 C 13.628906 -21.625 13.628906 -21.515625 13.71875 -21.40625 L 13.738281 -21.40625 C 14.09375 -21.007812 14.269531 -20.542969 14.269531 -20.058594 L 14.269531 -13.894531 C 14.269531 -13.675781 14.183594 -13.496094 14.050781 -13.363281 C 13.894531 -13.230469 13.71875 -13.164062 13.519531 -13.164062 L 8.394531 -13.164062 C 8.171875 -13.164062 7.996094 -13.230469 7.863281 -13.363281 C 7.710938 -13.496094 7.644531 -13.675781 7.644531 -13.894531 L 7.644531 -20.078125 C 7.644531 -20.566406 7.820312 -21.007812 8.171875 -21.40625 C 8.238281 -21.515625 8.238281 -21.625 8.195312 -21.757812 C 8.128906 -21.890625 8.019531 -21.957031 7.886719 -21.957031 L 3.003906 -21.957031 C 2.851562 -21.957031 2.738281 -21.890625 2.695312 -21.757812 C 2.628906 -21.625 2.628906 -21.515625 2.71875 -21.40625 L 2.761719 -21.359375 C 3.09375 -20.984375 3.269531 -20.542969 3.269531 -20.035156 L 3.269531 -1.945312 C 3.269531 -1.414062 3.09375 -0.949219 2.761719 -0.597656 L 2.71875 -0.550781 C 2.628906 -0.417969 2.628906 -0.308594 2.695312 -0.175781 C 2.738281 -0.0429688 2.851562 0 3.003906 0 L 7.886719 0 C 8.019531 0 8.128906 -0.0429688 8.195312 -0.175781 C 8.238281 -0.308594 8.238281 -0.417969 8.171875 -0.550781 C 7.820312 -0.949219 7.644531 -1.390625 7.644531 -1.898438 L 7.644531 -8.0625 C 7.644531 -8.261719 7.710938 -8.4375 7.863281 -8.570312 C 7.996094 -8.703125 8.171875 -8.792969 8.394531 -8.792969 L 13.519531 -8.792969 C 13.71875 -8.792969 13.894531 -8.703125 14.050781 -8.570312 C 14.183594 -8.4375 14.269531 -8.261719 14.269531 -8.0625 L 14.269531 -1.898438 C 14.269531 -1.390625 14.09375 -0.949219 13.738281 -0.574219 L 13.71875 -0.550781 C 13.628906 -0.417969 13.628906 -0.308594 13.695312 -0.175781 C 13.761719 -0.0429688 13.871094 0 14.003906 0 L 18.910156 0 C 19.042969 0 19.128906 -0.0429688 19.195312 -0.175781 C 19.261719 -0.308594 19.261719 -0.417969 19.195312 -0.550781 Z M 19.195312 -0.550781" transform="translate(28.15782, 212.582086)"/></g></g></g><g fill="#ffc1b2" fill-opacity=".302"><g><g><path d="M 16.082031 -22.113281 C 15.707031 -21.757812 15.265625 -21.605469 14.777344 -21.605469 L 3.003906 -21.605469 C 2.851562 -21.605469 2.738281 -21.539062 2.695312 -21.40625 C 2.628906 -21.273438 2.628906 -21.164062 2.71875 -21.050781 L 2.785156 -20.984375 C 3.136719 -20.589844 3.3125 -20.125 3.3125 -19.59375 L 3.3125 -1.65625 C 3.3125 -1.390625 3.269531 -1.148438 3.179688 -0.90625 C 3.09375 -0.664062 2.960938 -0.441406 2.785156 -0.265625 L 2.71875 -0.199219 C 2.628906 -0.0664062 2.628906 0.0429688 2.695312 0.175781 C 2.738281 0.308594 2.851562 0.351562 3.003906 0.351562 L 14.777344 0.351562 C 15.265625 0.351562 15.707031 0.53125 16.082031 0.863281 C 16.191406 0.972656 16.324219 0.992188 16.457031 0.929688 C 16.589844 0.882812 16.679688 0.773438 16.679688 0.597656 L 16.679688 -4.328125 C 16.679688 -4.460938 16.613281 -4.574219 16.480469 -4.640625 C 16.347656 -4.683594 16.214844 -4.660156 16.125 -4.574219 C 15.726562 -4.195312 15.265625 -4.019531 14.734375 -4.019531 L 8.238281 -4.019531 C 8.085938 -4.019531 7.953125 -4.066406 7.84375 -4.175781 C 7.730469 -4.261719 7.6875 -4.394531 7.6875 -4.574219 L 7.6875 -7.886719 C 7.6875 -8.039062 7.730469 -8.171875 7.84375 -8.285156 C 7.953125 -8.371094 8.085938 -8.4375 8.238281 -8.4375 L 10.183594 -8.4375 C 10.714844 -8.4375 11.175781 -8.238281 11.574219 -7.886719 C 11.6875 -7.796875 11.796875 -7.796875 11.929688 -7.863281 C 12.0625 -7.929688 12.128906 -8.039062 12.128906 -8.171875 L 12.128906 -13.078125 C 12.128906 -13.210938 12.0625 -13.296875 11.929688 -13.363281 C 11.796875 -13.429688 11.6875 -13.429688 11.574219 -13.363281 C 11.175781 -12.988281 10.714844 -12.8125 10.183594 -12.8125 L 8.238281 -12.8125 C 8.085938 -12.8125 7.953125 -12.855469 7.84375 -12.96875 C 7.730469 -13.054688 7.6875 -13.1875 7.6875 -13.363281 L 7.6875 -16.679688 C 7.6875 -16.832031 7.730469 -16.964844 7.84375 -17.074219 C 7.953125 -17.164062 8.085938 -17.230469 8.238281 -17.230469 L 14.734375 -17.230469 C 15.265625 -17.230469 15.726562 -17.03125 16.125 -16.679688 C 16.214844 -16.566406 16.347656 -16.546875 16.480469 -16.613281 C 16.613281 -16.65625 16.679688 -16.765625 16.679688 -16.921875 L 16.679688 -21.871094 C 16.679688 -22 16.589844 -22.113281 16.457031 -22.179688 C 16.324219 -22.222656 16.191406 -22.199219 16.082031 -22.113281 Z M 16.082031 -22.113281" transform="translate(50.070852, 212.582086)"/></g></g></g><g fill="#ffc1b2" fill-opacity=".302"><g><g><path d="M 16.058594 -4.882812 L 15.792969 -4.660156 C 15.550781 -4.441406 15.285156 -4.351562 15 -4.351562 L 8.152344 -4.351562 C 7.996094 -4.351562 7.863281 -4.394531 7.777344 -4.484375 C 7.664062 -4.574219 7.621094 -4.707031 7.621094 -4.882812 L 7.621094 -19.992188 C 7.621094 -20.5 7.796875 -20.964844 8.152344 -21.359375 L 8.171875 -21.382812 C 8.238281 -21.492188 8.238281 -21.605469 8.195312 -21.738281 C 8.128906 -21.847656 8.019531 -21.914062 7.886719 -21.914062 L 3.003906 -21.914062 C 2.851562 -21.914062 2.738281 -21.847656 2.695312 -21.738281 C 2.628906 -21.605469 2.628906 -21.492188 2.71875 -21.382812 C 3.070312 -20.984375 3.246094 -20.523438 3.246094 -20.015625 L 3.246094 -0.484375 C 3.246094 -0.332031 3.292969 -0.199219 3.402344 -0.109375 C 3.492188 0 3.621094 0.0429688 3.777344 0.0429688 L 15 0.0429688 C 15.285156 0.0429688 15.550781 0.15625 15.792969 0.351562 L 16.058594 0.574219 C 16.171875 0.664062 16.28125 0.664062 16.414062 0.597656 C 16.523438 0.550781 16.589844 0.441406 16.589844 0.289062 L 16.589844 -4.59375 C 16.589844 -4.726562 16.523438 -4.835938 16.414062 -4.902344 C 16.28125 -4.949219 16.171875 -4.949219 16.058594 -4.882812 Z M 16.058594 -4.882812" transform="translate(69.399374, 212.582086)"/></g></g></g><g fill="#ffc1b2" fill-opacity=".302"><g><g><path d="M 18.910156 -0.617188 L 18.488281 -0.949219 C 18.179688 -1.148438 17.914062 -1.414062 17.695312 -1.765625 L 11.53125 -10.492188 C 11.398438 -10.625 11.355469 -10.800781 11.355469 -10.980469 C 11.355469 -11.15625 11.398438 -11.308594 11.53125 -11.464844 L 17.695312 -20.210938 C 17.914062 -20.5 18.179688 -20.785156 18.511719 -21.050781 L 18.910156 -21.339844 C 19.042969 -21.449219 19.085938 -21.605469 19.019531 -21.78125 C 18.929688 -21.890625 18.820312 -21.957031 18.710938 -21.957031 L 12.96875 -21.957031 C 12.8125 -21.957031 12.703125 -21.890625 12.65625 -21.757812 C 12.589844 -21.625 12.589844 -21.515625 12.679688 -21.40625 L 12.703125 -21.382812 C 12.835938 -21.207031 12.855469 -21.03125 12.746094 -20.851562 L 8.371094 -14.625 C 8.238281 -14.46875 8.105469 -14.425781 7.929688 -14.46875 C 7.753906 -14.511719 7.6875 -14.644531 7.6875 -14.84375 L 7.6875 -20.167969 C 7.6875 -20.609375 7.84375 -21.03125 8.171875 -21.382812 C 8.261719 -21.492188 8.285156 -21.625 8.238281 -21.757812 C 8.171875 -21.890625 8.0625 -21.957031 7.929688 -21.957031 L 2.980469 -21.957031 C 2.828125 -21.957031 2.71875 -21.890625 2.671875 -21.757812 C 2.605469 -21.625 2.628906 -21.515625 2.738281 -21.40625 C 3.113281 -20.984375 3.3125 -20.5 3.3125 -19.925781 L 3.3125 -1.921875 C 3.3125 -1.414062 3.136719 -0.972656 2.804688 -0.617188 L 2.738281 -0.550781 C 2.652344 -0.417969 2.652344 -0.308594 2.71875 -0.175781 C 2.761719 -0.0429688 2.871094 0 3.027344 0 L 7.972656 0 C 8.105469 0 8.21875 -0.0664062 8.261719 -0.199219 C 8.304688 -0.332031 8.304688 -0.441406 8.21875 -0.550781 C 7.863281 -0.929688 7.6875 -1.371094 7.6875 -1.855469 L 7.6875 -7.136719 C 7.6875 -7.3125 7.753906 -7.421875 7.929688 -7.488281 C 8.105469 -7.53125 8.238281 -7.488281 8.371094 -7.332031 L 12.746094 -1.125 C 12.855469 -0.90625 12.835938 -0.730469 12.703125 -0.597656 L 12.679688 -0.550781 C 12.589844 -0.417969 12.589844 -0.308594 12.65625 -0.175781 C 12.703125 -0.0429688 12.8125 0 12.96875 0 L 18.710938 0 C 18.84375 0 18.929688 -0.0664062 19.019531 -0.199219 C 19.042969 -0.265625 19.042969 -0.332031 19.042969 -0.417969 C 19.019531 -0.507812 18.976562 -0.574219 18.910156 -0.617188 Z M 18.910156 -0.617188" transform="translate(87.33625, 212.582086)"/></g></g></g><g fill="#ffc1b2" fill-opacity=".302"><g><g><path d="M 16.082031 -22.113281 C 15.707031 -21.757812 15.265625 -21.605469 14.777344 -21.605469 L 3.003906 -21.605469 C 2.851562 -21.605469 2.738281 -21.539062 2.695312 -21.40625 C 2.628906 -21.273438 2.628906 -21.164062 2.71875 -21.050781 L 2.785156 -20.984375 C 3.136719 -20.589844 3.3125 -20.125 3.3125 -19.59375 L 3.3125 -1.65625 C 3.3125 -1.390625 3.269531 -1.148438 3.179688 -0.90625 C 3.09375 -0.664062 2.960938 -0.441406 2.785156 -0.265625 L 2.71875 -0.199219 C 2.628906 -0.0664062 2.628906 0.0429688 2.695312 0.175781 C 2.738281 0.308594 2.851562 0.351562 3.003906 0.351562 L 14.777344 0.351562 C 15.265625 0.351562 15.707031 0.53125 16.082031 0.863281 C 16.191406 0.972656 16.324219 0.992188 16.457031 0.929688 C 16.589844 0.882812 16.679688 0.773438 16.679688 0.597656 L 16.679688 -4.328125 C 16.679688 -4.460938 16.613281 -4.574219 16.480469 -4.640625 C 16.347656 -4.683594 16.214844 -4.660156 16.125 -4.574219 C 15.726562 -4.195312 15.265625 -4.019531 14.734375 -4.019531 L 8.238281 -4.019531 C 8.085938 -4.019531 7.953125 -4.066406 7.84375 -4.175781 C 7.730469 -4.261719 7.6875 -4.394531 7.6875 -4.574219 L 7.6875 -7.886719 C 7.6875 -8.039062 7.730469 -8.171875 7.84375 -8.285156 C 7.953125 -8.371094 8.085938 -8.4375 8.238281 -8.4375 L 10.183594 -8.4375 C 10.714844 -8.4375 11.175781 -8.238281 11.574219 -7.886719 C 11.6875 -7.796875 11.796875 -7.796875 11.929688 -7.863281 C 12.0625 -7.929688 12.128906 -8.039062 12.128906 -8.171875 L 12.128906 -13.078125 C 12.128906 -13.210938 12.0625 -13.296875 11.929688 -13.363281 C 11.796875 -13.429688 11.6875 -13.429688 11.574219 -13.363281 C 11.175781 -12.988281 10.714844 -12.8125 10.183594 -12.8125 L 8.238281 -12.8125 C 8.085938 -12.8125 7.953125 -12.855469 7.84375 -12.96875 C 7.730469 -13.054688 7.6875 -13.1875 7.6875 -13.363281 L 7.6875 -16.679688 C 7.6875 -16.832031 7.730469 -16.964844 7.84375 -17.074219 C 7.953125 -17.164062 8.085938 -17.230469 8.238281 -17.230469 L 14.734375 -17.230469 C 15.265625 -17.230469 15.726562 -17.03125 16.125 -16.679688 C 16.214844 -16.566406 16.347656 -16.546875 16.480469 -16.613281 C 16.613281 -16.65625 16.679688 -16.765625 16.679688 -16.921875 L 16.679688 -21.871094 C 16.679688 -22 16.589844 -22.113281 16.457031 -22.179688 C 16.324219 -22.222656 16.191406 -22.199219 16.082031 -22.113281 Z M 16.082031 -22.113281" transform="translate(109.05047, 212.582086)"/></g></g></g><g fill="#ffc1b2" fill-opacity=".502"><g><g><path d="M 18.15625 -16.523438 L 18.046875 -16.65625 C 17.738281 -16.964844 17.539062 -17.320312 17.40625 -17.714844 C 17.007812 -18.953125 16.191406 -19.96875 15 -20.765625 C 14.335938 -21.183594 13.585938 -21.515625 12.746094 -21.738281 C 11.90625 -21.957031 11.046875 -22.066406 10.117188 -22.066406 C 9.191406 -22.066406 8.285156 -21.9375 7.421875 -21.714844 C 6.5625 -21.492188 5.789062 -21.164062 5.101562 -20.742188 C 4.175781 -20.167969 3.492188 -19.484375 3.003906 -18.667969 C 2.519531 -17.847656 2.296875 -16.964844 2.296875 -15.992188 C 2.296875 -14.136719 3.160156 -12.546875 4.925781 -11.242188 C 5.542969 -10.757812 6.207031 -10.359375 6.9375 -10.007812 C 7.664062 -9.652344 8.417969 -9.300781 9.167969 -8.992188 C 9.609375 -8.769531 10.09375 -8.550781 10.582031 -8.328125 C 11.066406 -8.105469 11.507812 -7.863281 11.90625 -7.644531 C 12.304688 -7.398438 12.636719 -7.15625 12.902344 -6.914062 C 13.164062 -6.648438 13.296875 -6.40625 13.296875 -6.164062 C 13.296875 -5.855469 13.1875 -5.566406 12.96875 -5.347656 C 12.746094 -5.125 12.457031 -4.925781 12.128906 -4.792969 C 11.796875 -4.660156 11.441406 -4.550781 11.046875 -4.484375 C 10.648438 -4.394531 10.292969 -4.375 9.941406 -4.375 C 9.5 -4.375 9.058594 -4.417969 8.570312 -4.527344 C 8.085938 -4.617188 7.664062 -4.792969 7.332031 -5.035156 C 7.246094 -5.101562 7.179688 -5.191406 7.179688 -5.300781 C 7.15625 -5.410156 7.179688 -5.5 7.269531 -5.589844 L 7.289062 -5.609375 C 7.355469 -5.722656 7.355469 -5.832031 7.3125 -5.964844 C 7.246094 -6.097656 7.136719 -6.164062 7.003906 -6.164062 L 2.121094 -6.164062 C 1.964844 -6.164062 1.855469 -6.097656 1.8125 -5.964844 C 1.746094 -5.832031 1.746094 -5.722656 1.832031 -5.609375 L 1.921875 -5.523438 C 2.230469 -5.167969 2.429688 -4.792969 2.5625 -4.417969 C 2.960938 -3.136719 3.753906 -2.121094 4.992188 -1.347656 C 5.65625 -0.90625 6.429688 -0.574219 7.269531 -0.351562 C 8.105469 -0.109375 9.011719 0 9.941406 0 C 11.046875 0 12.082031 -0.15625 13.035156 -0.464844 C 13.984375 -0.773438 14.800781 -1.191406 15.484375 -1.746094 C 16.171875 -2.273438 16.699219 -2.9375 17.097656 -3.6875 C 17.472656 -4.441406 17.671875 -5.257812 17.671875 -6.164062 C 17.671875 -7.113281 17.453125 -7.953125 17.03125 -8.660156 C 16.613281 -9.367188 16.082031 -9.984375 15.417969 -10.515625 C 14.757812 -11.046875 14.050781 -11.488281 13.253906 -11.882812 C 12.457031 -12.28125 11.6875 -12.636719 10.933594 -12.988281 C 10.425781 -13.210938 9.917969 -13.429688 9.410156 -13.675781 C 8.902344 -13.894531 8.4375 -14.136719 8.039062 -14.402344 C 7.644531 -14.644531 7.3125 -14.910156 7.046875 -15.175781 C 6.78125 -15.441406 6.671875 -15.707031 6.671875 -15.992188 C 6.671875 -16.234375 6.757812 -16.457031 6.980469 -16.679688 C 7.179688 -16.898438 7.445312 -17.074219 7.777344 -17.230469 C 8.085938 -17.363281 8.460938 -17.472656 8.878906 -17.5625 C 9.277344 -17.648438 9.699219 -17.695312 10.117188 -17.695312 C 10.601562 -17.695312 11.089844 -17.628906 11.53125 -17.539062 C 11.972656 -17.429688 12.328125 -17.273438 12.636719 -17.074219 C 12.722656 -17.007812 12.789062 -16.921875 12.789062 -16.8125 C 12.789062 -16.699219 12.769531 -16.613281 12.703125 -16.546875 L 12.703125 -16.523438 C 12.613281 -16.390625 12.613281 -16.28125 12.679688 -16.171875 C 12.722656 -16.039062 12.835938 -15.992188 12.988281 -15.992188 L 17.871094 -15.992188 C 18.003906 -15.992188 18.113281 -16.039062 18.179688 -16.171875 C 18.222656 -16.28125 18.222656 -16.390625 18.15625 -16.523438 Z M 18.15625 -16.523438" transform="translate(8.751405, 212.83032)"/></g></g></g><g fill="#ffc1b2" fill-opacity=".502"><g><g><path d="M 19.195312 -0.550781 L 19.152344 -0.574219 C 18.796875 -0.949219 18.644531 -1.390625 18.644531 -1.921875 L 18.644531 -20.035156 C 18.644531 -20.542969 18.796875 -20.984375 19.152344 -21.382812 L 19.195312 -21.40625 C 19.261719 -21.515625 19.261719 -21.625 19.195312 -21.757812 C 19.128906 -21.890625 19.042969 -21.957031 18.910156 -21.957031 L 14.003906 -21.957031 C 13.871094 -21.957031 13.761719 -21.890625 13.695312 -21.757812 C 13.628906 -21.625 13.628906 -21.515625 13.71875 -21.40625 L 13.738281 -21.40625 C 14.09375 -21.007812 14.269531 -20.542969 14.269531 -20.058594 L 14.269531 -13.894531 C 14.269531 -13.675781 14.183594 -13.496094 14.050781 -13.363281 C 13.894531 -13.230469 13.71875 -13.164062 13.519531 -13.164062 L 8.394531 -13.164062 C 8.171875 -13.164062 7.996094 -13.230469 7.863281 -13.363281 C 7.710938 -13.496094 7.644531 -13.675781 7.644531 -13.894531 L 7.644531 -20.078125 C 7.644531 -20.566406 7.820312 -21.007812 8.171875 -21.40625 C 8.238281 -21.515625 8.238281 -21.625 8.195312 -21.757812 C 8.128906 -21.890625 8.019531 -21.957031 7.886719 -21.957031 L 3.003906 -21.957031 C 2.851562 -21.957031 2.738281 -21.890625 2.695312 -21.757812 C 2.628906 -21.625 2.628906 -21.515625 2.71875 -21.40625 L 2.761719 -21.359375 C 3.09375 -20.984375 3.269531 -20.542969 3.269531 -20.035156 L 3.269531 -1.945312 C 3.269531 -1.414062 3.09375 -0.949219 2.761719 -0.597656 L 2.71875 -0.550781 C 2.628906 -0.417969 2.628906 -0.308594 2.695312 -0.175781 C 2.738281 -0.0429688 2.851562 0 3.003906 0 L 7.886719 0 C 8.019531 0 8.128906 -0.0429688 8.195312 -0.175781 C 8.238281 -0.308594 8.238281 -0.417969 8.171875 -0.550781 C 7.820312 -0.949219 7.644531 -1.390625 7.644531 -1.898438 L 7.644531 -8.0625 C 7.644531 -8.261719 7.710938 -8.4375 7.863281 -8.570312 C 7.996094 -8.703125 8.171875 -8.792969 8.394531 -8.792969 L 13.519531 -8.792969 C 13.71875 -8.792969 13.894531 -8.703125 14.050781 -8.570312 C 14.183594 -8.4375 14.269531 -8.261719 14.269531 -8.0625 L 14.269531 -1.898438 C 14.269531 -1.390625 14.09375 -0.949219 13.738281 -0.574219 L 13.71875 -0.550781 C 13.628906 -0.417969 13.628906 -0.308594 13.695312 -0.175781 C 13.761719 -0.0429688 13.871094 0 14.003906 0 L 18.910156 0 C 19.042969 0 19.128906 -0.0429688 19.195312 -0.175781 C 19.261719 -0.308594 19.261719 -0.417969 19.195312 -0.550781 Z M 19.195312 -0.550781" transform="translate(28.742625, 212.83032)"/></g></g></g><g fill="#ffc1b2" fill-opacity=".502"><g><g><path d="M 16.082031 -22.113281 C 15.707031 -21.757812 15.265625 -21.605469 14.777344 -21.605469 L 3.003906 -21.605469 C 2.851562 -21.605469 2.738281 -21.539062 2.695312 -21.40625 C 2.628906 -21.273438 2.628906 -21.164062 2.71875 -21.050781 L 2.785156 -20.984375 C 3.136719 -20.589844 3.3125 -20.125 3.3125 -19.59375 L 3.3125 -1.65625 C 3.3125 -1.390625 3.269531 -1.148438 3.179688 -0.90625 C 3.09375 -0.664062 2.960938 -0.441406 2.785156 -0.265625 L 2.71875 -0.199219 C 2.628906 -0.0664062 2.628906 0.0429688 2.695312 0.175781 C 2.738281 0.308594 2.851562 0.351562 3.003906 0.351562 L 14.777344 0.351562 C 15.265625 0.351562 15.707031 0.53125 16.082031 0.863281 C 16.191406 0.972656 16.324219 0.992188 16.457031 0.929688 C 16.589844 0.882812 16.679688 0.773438 16.679688 0.597656 L 16.679688 -4.328125 C 16.679688 -4.460938 16.613281 -4.574219 16.480469 -4.640625 C 16.347656 -4.683594 16.214844 -4.660156 16.125 -4.574219 C 15.726562 -4.195312 15.265625 -4.019531 14.734375 -4.019531 L 8.238281 -4.019531 C 8.085938 -4.019531 7.953125 -4.066406 7.84375 -4.175781 C 7.730469 -4.261719 7.6875 -4.394531 7.6875 -4.574219 L 7.6875 -7.886719 C 7.6875 -8.039062 7.730469 -8.171875 7.84375 -8.285156 C 7.953125 -8.371094 8.085938 -8.4375 8.238281 -8.4375 L 10.183594 -8.4375 C 10.714844 -8.4375 11.175781 -8.238281 11.574219 -7.886719 C 11.6875 -7.796875 11.796875 -7.796875 11.929688 -7.863281 C 12.0625 -7.929688 12.128906 -8.039062 12.128906 -8.171875 L 12.128906 -13.078125 C 12.128906 -13.210938 12.0625 -13.296875 11.929688 -13.363281 C 11.796875 -13.429688 11.6875 -13.429688 11.574219 -13.363281 C 11.175781 -12.988281 10.714844 -12.8125 10.183594 -12.8125 L 8.238281 -12.8125 C 8.085938 -12.8125 7.953125 -12.855469 7.84375 -12.96875 C 7.730469 -13.054688 7.6875 -13.1875 7.6875 -13.363281 L 7.6875 -16.679688 C 7.6875 -16.832031 7.730469 -16.964844 7.84375 -17.074219 C 7.953125 -17.164062 8.085938 -17.230469 8.238281 -17.230469 L 14.734375 -17.230469 C 15.265625 -17.230469 15.726562 -17.03125 16.125 -16.679688 C 16.214844 -16.566406 16.347656 -16.546875 16.480469 -16.613281 C 16.613281 -16.65625 16.679688 -16.765625 16.679688 -16.921875 L 16.679688 -21.871094 C 16.679688 -22 16.589844 -22.113281 16.457031 -22.179688 C 16.324219 -22.222656 16.191406 -22.199219 16.082031 -22.113281 Z M 16.082031 -22.113281" transform="translate(50.655656, 212.83032)"/></g></g></g><g fill="#ffc1b2" fill-opacity=".502"><g><g><path d="M 16.058594 -4.882812 L 15.792969 -4.660156 C 15.550781 -4.441406 15.285156 -4.351562 15 -4.351562 L 8.152344 -4.351562 C 7.996094 -4.351562 7.863281 -4.394531 7.777344 -4.484375 C 7.664062 -4.574219 7.621094 -4.707031 7.621094 -4.882812 L 7.621094 -19.992188 C 7.621094 -20.5 7.796875 -20.964844 8.152344 -21.359375 L 8.171875 -21.382812 C 8.238281 -21.492188 8.238281 -21.605469 8.195312 -21.738281 C 8.128906 -21.847656 8.019531 -21.914062 7.886719 -21.914062 L 3.003906 -21.914062 C 2.851562 -21.914062 2.738281 -21.847656 2.695312 -21.738281 C 2.628906 -21.605469 2.628906 -21.492188 2.71875 -21.382812 C 3.070312 -20.984375 3.246094 -20.523438 3.246094 -20.015625 L 3.246094 -0.484375 C 3.246094 -0.332031 3.292969 -0.199219 3.402344 -0.109375 C 3.492188 0 3.621094 0.0429688 3.777344 0.0429688 L 15 0.0429688 C 15.285156 0.0429688 15.550781 0.15625 15.792969 0.351562 L 16.058594 0.574219 C 16.171875 0.664062 16.28125 0.664062 16.414062 0.597656 C 16.523438 0.550781 16.589844 0.441406 16.589844 0.289062 L 16.589844 -4.59375 C 16.589844 -4.726562 16.523438 -4.835938 16.414062 -4.902344 C 16.28125 -4.949219 16.171875 -4.949219 16.058594 -4.882812 Z M 16.058594 -4.882812" transform="translate(69.984178, 212.83032)"/></g></g></g><g fill="#ffc1b2" fill-opacity=".502"><g><g><path d="M 18.910156 -0.617188 L 18.488281 -0.949219 C 18.179688 -1.148438 17.914062 -1.414062 17.695312 -1.765625 L 11.53125 -10.492188 C 11.398438 -10.625 11.355469 -10.800781 11.355469 -10.980469 C 11.355469 -11.15625 11.398438 -11.308594 11.53125 -11.464844 L 17.695312 -20.210938 C 17.914062 -20.5 18.179688 -20.785156 18.511719 -21.050781 L 18.910156 -21.339844 C 19.042969 -21.449219 19.085938 -21.605469 19.019531 -21.78125 C 18.929688 -21.890625 18.820312 -21.957031 18.710938 -21.957031 L 12.96875 -21.957031 C 12.8125 -21.957031 12.703125 -21.890625 12.65625 -21.757812 C 12.589844 -21.625 12.589844 -21.515625 12.679688 -21.40625 L 12.703125 -21.382812 C 12.835938 -21.207031 12.855469 -21.03125 12.746094 -20.851562 L 8.371094 -14.625 C 8.238281 -14.46875 8.105469 -14.425781 7.929688 -14.46875 C 7.753906 -14.511719 7.6875 -14.644531 7.6875 -14.84375 L 7.6875 -20.167969 C 7.6875 -20.609375 7.84375 -21.03125 8.171875 -21.382812 C 8.261719 -21.492188 8.285156 -21.625 8.238281 -21.757812 C 8.171875 -21.890625 8.0625 -21.957031 7.929688 -21.957031 L 2.980469 -21.957031 C 2.828125 -21.957031 2.71875 -21.890625 2.671875 -21.757812 C 2.605469 -21.625 2.628906 -21.515625 2.738281 -21.40625 C 3.113281 -20.984375 3.3125 -20.5 3.3125 -19.925781 L 3.3125 -1.921875 C 3.3125 -1.414062 3.136719 -0.972656 2.804688 -0.617188 L 2.738281 -0.550781 C 2.652344 -0.417969 2.652344 -0.308594 2.71875 -0.175781 C 2.761719 -0.0429688 2.871094 0 3.027344 0 L 7.972656 0 C 8.105469 0 8.21875 -0.0664062 8.261719 -0.199219 C 8.304688 -0.332031 8.304688 -0.441406 8.21875 -0.550781 C 7.863281 -0.929688 7.6875 -1.371094 7.6875 -1.855469 L 7.6875 -7.136719 C 7.6875 -7.3125 7.753906 -7.421875 7.929688 -7.488281 C 8.105469 -7.53125 8.238281 -7.488281 8.371094 -7.332031 L 12.746094 -1.125 C 12.855469 -0.90625 12.835938 -0.730469 12.703125 -0.597656 L 12.679688 -0.550781 C 12.589844 -0.417969 12.589844 -0.308594 12.65625 -0.175781 C 12.703125 -0.0429688 12.8125 0 12.96875 0 L 18.710938 0 C 18.84375 0 18.929688 -0.0664062 19.019531 -0.199219 C 19.042969 -0.265625 19.042969 -0.332031 19.042969 -0.417969 C 19.019531 -0.507812 18.976562 -0.574219 18.910156 -0.617188 Z M 18.910156 -0.617188" transform="translate(87.921054, 212.83032)"/></g></g></g><g fill="#ffc1b2" fill-opacity=".502"><g><g><path d="M 16.082031 -22.113281 C 15.707031 -21.757812 15.265625 -21.605469 14.777344 -21.605469 L 3.003906 -21.605469 C 2.851562 -21.605469 2.738281 -21.539062 2.695312 -21.40625 C 2.628906 -21.273438 2.628906 -21.164062 2.71875 -21.050781 L 2.785156 -20.984375 C 3.136719 -20.589844 3.3125 -20.125 3.3125 -19.59375 L 3.3125 -1.65625 C 3.3125 -1.390625 3.269531 -1.148438 3.179688 -0.90625 C 3.09375 -0.664062 2.960938 -0.441406 2.785156 -0.265625 L 2.71875 -0.199219 C 2.628906 -0.0664062 2.628906 0.0429688 2.695312 0.175781 C 2.738281 0.308594 2.851562 0.351562 3.003906 0.351562 L 14.777344 0.351562 C 15.265625 0.351562 15.707031 0.53125 16.082031 0.863281 C 16.191406 0.972656 16.324219 0.992188 16.457031 0.929688 C 16.589844 0.882812 16.679688 0.773438 16.679688 0.597656 L 16.679688 -4.328125 C 16.679688 -4.460938 16.613281 -4.574219 16.480469 -4.640625 C 16.347656 -4.683594 16.214844 -4.660156 16.125 -4.574219 C 15.726562 -4.195312 15.265625 -4.019531 14.734375 -4.019531 L 8.238281 -4.019531 C 8.085938 -4.019531 7.953125 -4.066406 7.84375 -4.175781 C 7.730469 -4.261719 7.6875 -4.394531 7.6875 -4.574219 L 7.6875 -7.886719 C 7.6875 -8.039062 7.730469 -8.171875 7.84375 -8.285156 C 7.953125 -8.371094 8.085938 -8.4375 8.238281 -8.4375 L 10.183594 -8.4375 C 10.714844 -8.4375 11.175781 -8.238281 11.574219 -7.886719 C 11.6875 -7.796875 11.796875 -7.796875 11.929688 -7.863281 C 12.0625 -7.929688 12.128906 -8.039062 12.128906 -8.171875 L 12.128906 -13.078125 C 12.128906 -13.210938 12.0625 -13.296875 11.929688 -13.363281 C 11.796875 -13.429688 11.6875 -13.429688 11.574219 -13.363281 C 11.175781 -12.988281 10.714844 -12.8125 10.183594 -12.8125 L 8.238281 -12.8125 C 8.085938 -12.8125 7.953125 -12.855469 7.84375 -12.96875 C 7.730469 -13.054688 7.6875 -13.1875 7.6875 -13.363281 L 7.6875 -16.679688 C 7.6875 -16.832031 7.730469 -16.964844 7.84375 -17.074219 C 7.953125 -17.164062 8.085938 -17.230469 8.238281 -17.230469 L 14.734375 -17.230469 C 15.265625 -17.230469 15.726562 -17.03125 16.125 -16.679688 C 16.214844 -16.566406 16.347656 -16.546875 16.480469 -16.613281 C 16.613281 -16.65625 16.679688 -16.765625 16.679688 -16.921875 L 16.679688 -21.871094 C 16.679688 -22 16.589844 -22.113281 16.457031 -22.179688 C 16.324219 -22.222656 16.191406 -22.199219 16.082031 -22.113281 Z M 16.082031 -22.113281" transform="translate(109.635275, 212.83032)"/></g></g></g><g fill="#fff" fill-opacity="1"><g><g><path d="M 18.15625 -16.523438 L 18.046875 -16.65625 C 17.738281 -16.964844 17.539062 -17.320312 17.40625 -17.714844 C 17.007812 -18.953125 16.191406 -19.96875 15 -20.765625 C 14.335938 -21.183594 13.585938 -21.515625 12.746094 -21.738281 C 11.90625 -21.957031 11.046875 -22.066406 10.117188 -22.066406 C 9.191406 -22.066406 8.285156 -21.9375 7.421875 -21.714844 C 6.5625 -21.492188 5.789062 -21.164062 5.101562 -20.742188 C 4.175781 -20.167969 3.492188 -19.484375 3.003906 -18.667969 C 2.519531 -17.847656 2.296875 -16.964844 2.296875 -15.992188 C 2.296875 -14.136719 3.160156 -12.546875 4.925781 -11.242188 C 5.542969 -10.757812 6.207031 -10.359375 6.9375 -10.007812 C 7.664062 -9.652344 8.417969 -9.300781 9.167969 -8.992188 C 9.609375 -8.769531 10.09375 -8.550781 10.582031 -8.328125 C 11.066406 -8.105469 11.507812 -7.863281 11.90625 -7.644531 C 12.304688 -7.398438 12.636719 -7.15625 12.902344 -6.914062 C 13.164062 -6.648438 13.296875 -6.40625 13.296875 -6.164062 C 13.296875 -5.855469 13.1875 -5.566406 12.96875 -5.347656 C 12.746094 -5.125 12.457031 -4.925781 12.128906 -4.792969 C 11.796875 -4.660156 11.441406 -4.550781 11.046875 -4.484375 C 10.648438 -4.394531 10.292969 -4.375 9.941406 -4.375 C 9.5 -4.375 9.058594 -4.417969 8.570312 -4.527344 C 8.085938 -4.617188 7.664062 -4.792969 7.332031 -5.035156 C 7.246094 -5.101562 7.179688 -5.191406 7.179688 -5.300781 C 7.15625 -5.410156 7.179688 -5.5 7.269531 -5.589844 L 7.289062 -5.609375 C 7.355469 -5.722656 7.355469 -5.832031 7.3125 -5.964844 C 7.246094 -6.097656 7.136719 -6.164062 7.003906 -6.164062 L 2.121094 -6.164062 C 1.964844 -6.164062 1.855469 -6.097656 1.8125 -5.964844 C 1.746094 -5.832031 1.746094 -5.722656 1.832031 -5.609375 L 1.921875 -5.523438 C 2.230469 -5.167969 2.429688 -4.792969 2.5625 -4.417969 C 2.960938 -3.136719 3.753906 -2.121094 4.992188 -1.347656 C 5.65625 -0.90625 6.429688 -0.574219 7.269531 -0.351562 C 8.105469 -0.109375 9.011719 0 9.941406 0 C 11.046875 0 12.082031 -0.15625 13.035156 -0.464844 C 13.984375 -0.773438 14.800781 -1.191406 15.484375 -1.746094 C 16.171875 -2.273438 16.699219 -2.9375 17.097656 -3.6875 C 17.472656 -4.441406 17.671875 -5.257812 17.671875 -6.164062 C 17.671875 -7.113281 17.453125 -7.953125 17.03125 -8.660156 C 16.613281 -9.367188 16.082031 -9.984375 15.417969 -10.515625 C 14.757812 -11.046875 14.050781 -11.488281 13.253906 -11.882812 C 12.457031 -12.28125 11.6875 -12.636719 10.933594 -12.988281 C 10.425781 -13.210938 9.917969 -13.429688 9.410156 -13.675781 C 8.902344 -13.894531 8.4375 -14.136719 8.039062 -14.402344 C 7.644531 -14.644531 7.3125 -14.910156 7.046875 -15.175781 C 6.78125 -15.441406 6.671875 -15.707031 6.671875 -15.992188 C 6.671875 -16.234375 6.757812 -16.457031 6.980469 -16.679688 C 7.179688 -16.898438 7.445312 -17.074219 7.777344 -17.230469 C 8.085938 -17.363281 8.460938 -17.472656 8.878906 -17.5625 C 9.277344 -17.648438 9.699219 -17.695312 10.117188 -17.695312 C 10.601562 -17.695312 11.089844 -17.628906 11.53125 -17.539062 C 11.972656 -17.429688 12.328125 -17.273438 12.636719 -17.074219 C 12.722656 -17.007812 12.789062 -16.921875 12.789062 -16.8125 C 12.789062 -16.699219 12.769531 -16.613281 12.703125 -16.546875 L 12.703125 -16.523438 C 12.613281 -16.390625 12.613281 -16.28125 12.679688 -16.171875 C 12.722656 -16.039062 12.835938 -15.992188 12.988281 -15.992188 L 17.871094 -15.992188 C 18.003906 -15.992188 18.113281 -16.039062 18.179688 -16.171875 C 18.222656 -16.28125 18.222656 -16.390625 18.15625 -16.523438 Z M 18.15625 -16.523438" transform="translate(9.336209, 213.078552)"/></g></g></g><g fill="#fff" fill-opacity="1"><g><g><path d="M 19.195312 -0.550781 L 19.152344 -0.574219 C 18.796875 -0.949219 18.644531 -1.390625 18.644531 -1.921875 L 18.644531 -20.035156 C 18.644531 -20.542969 18.796875 -20.984375 19.152344 -21.382812 L 19.195312 -21.40625 C 19.261719 -21.515625 19.261719 -21.625 19.195312 -21.757812 C 19.128906 -21.890625 19.042969 -21.957031 18.910156 -21.957031 L 14.003906 -21.957031 C 13.871094 -21.957031 13.761719 -21.890625 13.695312 -21.757812 C 13.628906 -21.625 13.628906 -21.515625 13.71875 -21.40625 L 13.738281 -21.40625 C 14.09375 -21.007812 14.269531 -20.542969 14.269531 -20.058594 L 14.269531 -13.894531 C 14.269531 -13.675781 14.183594 -13.496094 14.050781 -13.363281 C 13.894531 -13.230469 13.71875 -13.164062 13.519531 -13.164062 L 8.394531 -13.164062 C 8.171875 -13.164062 7.996094 -13.230469 7.863281 -13.363281 C 7.710938 -13.496094 7.644531 -13.675781 7.644531 -13.894531 L 7.644531 -20.078125 C 7.644531 -20.566406 7.820312 -21.007812 8.171875 -21.40625 C 8.238281 -21.515625 8.238281 -21.625 8.195312 -21.757812 C 8.128906 -21.890625 8.019531 -21.957031 7.886719 -21.957031 L 3.003906 -21.957031 C 2.851562 -21.957031 2.738281 -21.890625 2.695312 -21.757812 C 2.628906 -21.625 2.628906 -21.515625 2.71875 -21.40625 L 2.761719 -21.359375 C 3.09375 -20.984375 3.269531 -20.542969 3.269531 -20.035156 L 3.269531 -1.945312 C 3.269531 -1.414062 3.09375 -0.949219 2.761719 -0.597656 L 2.71875 -0.550781 C 2.628906 -0.417969 2.628906 -0.308594 2.695312 -0.175781 C 2.738281 -0.0429688 2.851562 0 3.003906 0 L 7.886719 0 C 8.019531 0 8.128906 -0.0429688 8.195312 -0.175781 C 8.238281 -0.308594 8.238281 -0.417969 8.171875 -0.550781 C 7.820312 -0.949219 7.644531 -1.390625 7.644531 -1.898438 L 7.644531 -8.0625 C 7.644531 -8.261719 7.710938 -8.4375 7.863281 -8.570312 C 7.996094 -8.703125 8.171875 -8.792969 8.394531 -8.792969 L 13.519531 -8.792969 C 13.71875 -8.792969 13.894531 -8.703125 14.050781 -8.570312 C 14.183594 -8.4375 14.269531 -8.261719 14.269531 -8.0625 L 14.269531 -1.898438 C 14.269531 -1.390625 14.09375 -0.949219 13.738281 -0.574219 L 13.71875 -0.550781 C 13.628906 -0.417969 13.628906 -0.308594 13.695312 -0.175781 C 13.761719 -0.0429688 13.871094 0 14.003906 0 L 18.910156 0 C 19.042969 0 19.128906 -0.0429688 19.195312 -0.175781 C 19.261719 -0.308594 19.261719 -0.417969 19.195312 -0.550781 Z M 19.195312 -0.550781" transform="translate(29.327429, 213.078552)"/></g></g></g><g fill="#fff" fill-opacity="1"><g><g><path d="M 16.082031 -22.113281 C 15.707031 -21.757812 15.265625 -21.605469 14.777344 -21.605469 L 3.003906 -21.605469 C 2.851562 -21.605469 2.738281 -21.539062 2.695312 -21.40625 C 2.628906 -21.273438 2.628906 -21.164062 2.71875 -21.050781 L 2.785156 -20.984375 C 3.136719 -20.589844 3.3125 -20.125 3.3125 -19.59375 L 3.3125 -1.65625 C 3.3125 -1.390625 3.269531 -1.148438 3.179688 -0.90625 C 3.09375 -0.664062 2.960938 -0.441406 2.785156 -0.265625 L 2.71875 -0.199219 C 2.628906 -0.0664062 2.628906 0.0429688 2.695312 0.175781 C 2.738281 0.308594 2.851562 0.351562 3.003906 0.351562 L 14.777344 0.351562 C 15.265625 0.351562 15.707031 0.53125 16.082031 0.863281 C 16.191406 0.972656 16.324219 0.992188 16.457031 0.929688 C 16.589844 0.882812 16.679688 0.773438 16.679688 0.597656 L 16.679688 -4.328125 C 16.679688 -4.460938 16.613281 -4.574219 16.480469 -4.640625 C 16.347656 -4.683594 16.214844 -4.660156 16.125 -4.574219 C 15.726562 -4.195312 15.265625 -4.019531 14.734375 -4.019531 L 8.238281 -4.019531 C 8.085938 -4.019531 7.953125 -4.066406 7.84375 -4.175781 C 7.730469 -4.261719 7.6875 -4.394531 7.6875 -4.574219 L 7.6875 -7.886719 C 7.6875 -8.039062 7.730469 -8.171875 7.84375 -8.285156 C 7.953125 -8.371094 8.085938 -8.4375 8.238281 -8.4375 L 10.183594 -8.4375 C 10.714844 -8.4375 11.175781 -8.238281 11.574219 -7.886719 C 11.6875 -7.796875 11.796875 -7.796875 11.929688 -7.863281 C 12.0625 -7.929688 12.128906 -8.039062 12.128906 -8.171875 L 12.128906 -13.078125 C 12.128906 -13.210938 12.0625 -13.296875 11.929688 -13.363281 C 11.796875 -13.429688 11.6875 -13.429688 11.574219 -13.363281 C 11.175781 -12.988281 10.714844 -12.8125 10.183594 -12.8125 L 8.238281 -12.8125 C 8.085938 -12.8125 7.953125 -12.855469 7.84375 -12.96875 C 7.730469 -13.054688 7.6875 -13.1875 7.6875 -13.363281 L 7.6875 -16.679688 C 7.6875 -16.832031 7.730469 -16.964844 7.84375 -17.074219 C 7.953125 -17.164062 8.085938 -17.230469 8.238281 -17.230469 L 14.734375 -17.230469 C 15.265625 -17.230469 15.726562 -17.03125 16.125 -16.679688 C 16.214844 -16.566406 16.347656 -16.546875 16.480469 -16.613281 C 16.613281 -16.65625 16.679688 -16.765625 16.679688 -16.921875 L 16.679688 -21.871094 C 16.679688 -22 16.589844 -22.113281 16.457031 -22.179688 C 16.324219 -22.222656 16.191406 -22.199219 16.082031 -22.113281 Z M 16.082031 -22.113281" transform="translate(51.24046, 213.078552)"/></g></g></g><g fill="#fff" fill-opacity="1"><g><g><path d="M 16.058594 -4.882812 L 15.792969 -4.660156 C 15.550781 -4.441406 15.285156 -4.351562 15 -4.351562 L 8.152344 -4.351562 C 7.996094 -4.351562 7.863281 -4.394531 7.777344 -4.484375 C 7.664062 -4.574219 7.621094 -4.707031 7.621094 -4.882812 L 7.621094 -19.992188 C 7.621094 -20.5 7.796875 -20.964844 8.152344 -21.359375 L 8.171875 -21.382812 C 8.238281 -21.492188 8.238281 -21.605469 8.195312 -21.738281 C 8.128906 -21.847656 8.019531 -21.914062 7.886719 -21.914062 L 3.003906 -21.914062 C 2.851562 -21.914062 2.738281 -21.847656 2.695312 -21.738281 C 2.628906 -21.605469 2.628906 -21.492188 2.71875 -21.382812 C 3.070312 -20.984375 3.246094 -20.523438 3.246094 -20.015625 L 3.246094 -0.484375 C 3.246094 -0.332031 3.292969 -0.199219 3.402344 -0.109375 C 3.492188 0 3.621094 0.0429688 3.777344 0.0429688 L 15 0.0429688 C 15.285156 0.0429688 15.550781 0.15625 15.792969 0.351562 L 16.058594 0.574219 C 16.171875 0.664062 16.28125 0.664062 16.414062 0.597656 C 16.523438 0.550781 16.589844 0.441406 16.589844 0.289062 L 16.589844 -4.59375 C 16.589844 -4.726562 16.523438 -4.835938 16.414062 -4.902344 C 16.28125 -4.949219 16.171875 -4.949219 16.058594 -4.882812 Z M 16.058594 -4.882812" transform="translate(70.568982, 213.078552)"/></g></g></g><g fill="#fff" fill-opacity="1"><g><g><path d="M 18.910156 -0.617188 L 18.488281 -0.949219 C 18.179688 -1.148438 17.914062 -1.414062 17.695312 -1.765625 L 11.53125 -10.492188 C 11.398438 -10.625 11.355469 -10.800781 11.355469 -10.980469 C 11.355469 -11.15625 11.398438 -11.308594 11.53125 -11.464844 L 17.695312 -20.210938 C 17.914062 -20.5 18.179688 -20.785156 18.511719 -21.050781 L 18.910156 -21.339844 C 19.042969 -21.449219 19.085938 -21.605469 19.019531 -21.78125 C 18.929688 -21.890625 18.820312 -21.957031 18.710938 -21.957031 L 12.96875 -21.957031 C 12.8125 -21.957031 12.703125 -21.890625 12.65625 -21.757812 C 12.589844 -21.625 12.589844 -21.515625 12.679688 -21.40625 L 12.703125 -21.382812 C 12.835938 -21.207031 12.855469 -21.03125 12.746094 -20.851562 L 8.371094 -14.625 C 8.238281 -14.46875 8.105469 -14.425781 7.929688 -14.46875 C 7.753906 -14.511719 7.6875 -14.644531 7.6875 -14.84375 L 7.6875 -20.167969 C 7.6875 -20.609375 7.84375 -21.03125 8.171875 -21.382812 C 8.261719 -21.492188 8.285156 -21.625 8.238281 -21.757812 C 8.171875 -21.890625 8.0625 -21.957031 7.929688 -21.957031 L 2.980469 -21.957031 C 2.828125 -21.957031 2.71875 -21.890625 2.671875 -21.757812 C 2.605469 -21.625 2.628906 -21.515625 2.738281 -21.40625 C 3.113281 -20.984375 3.3125 -20.5 3.3125 -19.925781 L 3.3125 -1.921875 C 3.3125 -1.414062 3.136719 -0.972656 2.804688 -0.617188 L 2.738281 -0.550781 C 2.652344 -0.417969 2.652344 -0.308594 2.71875 -0.175781 C 2.761719 -0.0429688 2.871094 0 3.027344 0 L 7.972656 0 C 8.105469 0 8.21875 -0.0664062 8.261719 -0.199219 C 8.304688 -0.332031 8.304688 -0.441406 8.21875 -0.550781 C 7.863281 -0.929688 7.6875 -1.371094 7.6875 -1.855469 L 7.6875 -7.136719 C 7.6875 -7.3125 7.753906 -7.421875 7.929688 -7.488281 C 8.105469 -7.53125 8.238281 -7.488281 8.371094 -7.332031 L 12.746094 -1.125 C 12.855469 -0.90625 12.835938 -0.730469 12.703125 -0.597656 L 12.679688 -0.550781 C 12.589844 -0.417969 12.589844 -0.308594 12.65625 -0.175781 C 12.703125 -0.0429688 12.8125 0 12.96875 0 L 18.710938 0 C 18.84375 0 18.929688 -0.0664062 19.019531 -0.199219 C 19.042969 -0.265625 19.042969 -0.332031 19.042969 -0.417969 C 19.019531 -0.507812 18.976562 -0.574219 18.910156 -0.617188 Z M 18.910156 -0.617188" transform="translate(88.505858, 213.078552)"/></g></g></g><g fill="#fff" fill-opacity="1"><g><g><path d="M 16.082031 -22.113281 C 15.707031 -21.757812 15.265625 -21.605469 14.777344 -21.605469 L 3.003906 -21.605469 C 2.851562 -21.605469 2.738281 -21.539062 2.695312 -21.40625 C 2.628906 -21.273438 2.628906 -21.164062 2.71875 -21.050781 L 2.785156 -20.984375 C 3.136719 -20.589844 3.3125 -20.125 3.3125 -19.59375 L 3.3125 -1.65625 C 3.3125 -1.390625 3.269531 -1.148438 3.179688 -0.90625 C 3.09375 -0.664062 2.960938 -0.441406 2.785156 -0.265625 L 2.71875 -0.199219 C 2.628906 -0.0664062 2.628906 0.0429688 2.695312 0.175781 C 2.738281 0.308594 2.851562 0.351562 3.003906 0.351562 L 14.777344 0.351562 C 15.265625 0.351562 15.707031 0.53125 16.082031 0.863281 C 16.191406 0.972656 16.324219 0.992188 16.457031 0.929688 C 16.589844 0.882812 16.679688 0.773438 16.679688 0.597656 L 16.679688 -4.328125 C 16.679688 -4.460938 16.613281 -4.574219 16.480469 -4.640625 C 16.347656 -4.683594 16.214844 -4.660156 16.125 -4.574219 C 15.726562 -4.195312 15.265625 -4.019531 14.734375 -4.019531 L 8.238281 -4.019531 C 8.085938 -4.019531 7.953125 -4.066406 7.84375 -4.175781 C 7.730469 -4.261719 7.6875 -4.394531 7.6875 -4.574219 L 7.6875 -7.886719 C 7.6875 -8.039062 7.730469 -8.171875 7.84375 -8.285156 C 7.953125 -8.371094 8.085938 -8.4375 8.238281 -8.4375 L 10.183594 -8.4375 C 10.714844 -8.4375 11.175781 -8.238281 11.574219 -7.886719 C 11.6875 -7.796875 11.796875 -7.796875 11.929688 -7.863281 C 12.0625 -7.929688 12.128906 -8.039062 12.128906 -8.171875 L 12.128906 -13.078125 C 12.128906 -13.210938 12.0625 -13.296875 11.929688 -13.363281 C 11.796875 -13.429688 11.6875 -13.429688 11.574219 -13.363281 C 11.175781 -12.988281 10.714844 -12.8125 10.183594 -12.8125 L 8.238281 -12.8125 C 8.085938 -12.8125 7.953125 -12.855469 7.84375 -12.96875 C 7.730469 -13.054688 7.6875 -13.1875 7.6875 -13.363281 L 7.6875 -16.679688 C 7.6875 -16.832031 7.730469 -16.964844 7.84375 -17.074219 C 7.953125 -17.164062 8.085938 -17.230469 8.238281 -17.230469 L 14.734375 -17.230469 C 15.265625 -17.230469 15.726562 -17.03125 16.125 -16.679688 C 16.214844 -16.566406 16.347656 -16.546875 16.480469 -16.613281 C 16.613281 -16.65625 16.679688 -16.765625 16.679688 -16.921875 L 16.679688 -21.871094 C 16.679688 -22 16.589844 -22.113281 16.457031 -22.179688 C 16.324219 -22.222656 16.191406 -22.199219 16.082031 -22.113281 Z M 16.082031 -22.113281" transform="translate(110.220078, 213.078552)"/></g></g></g></svg>